<?xml version="1.0" encoding="UTF-8" standalone="no"?>
<!-- Created with Inkscape (http://www.inkscape.org/) -->

<svg
   xmlns:dc="http://purl.org/dc/elements/1.1/"
   xmlns:cc="http://creativecommons.org/ns#"
   xmlns:rdf="http://www.w3.org/1999/02/22-rdf-syntax-ns#"
   xmlns:svg="http://www.w3.org/2000/svg"
   xmlns="http://www.w3.org/2000/svg"
   xmlns:sodipodi="http://sodipodi.sourceforge.net/DTD/sodipodi-0.dtd"
   xmlns:inkscape="http://www.inkscape.org/namespaces/inkscape"
   version="1.1"
   id="svg61"
   width="200.16"
   height="200.16"
   viewBox="0 0 200.16 200.16"
   sodipodi:docname="Chhokmah.svg"
   inkscape:version="0.92.4 (5da689c313, 2019-01-14)">
  <metadata
     id="metadata67">
    <rdf:RDF>
      <cc:Work
         rdf:about="">
        <dc:format>image/svg+xml</dc:format>
        <dc:type
           rdf:resource="http://purl.org/dc/dcmitype/StillImage" />
        <dc:title></dc:title>
      </cc:Work>
    </rdf:RDF>
  </metadata>
  <defs
     id="defs65" />
  <sodipodi:namedview
     pagecolor="#ffffff"
     bordercolor="#666666"
     borderopacity="1"
     objecttolerance="10"
     gridtolerance="10"
     guidetolerance="10"
     inkscape:pageopacity="0"
     inkscape:pageshadow="2"
     inkscape:window-width="1920"
     inkscape:window-height="1018"
     id="namedview63"
     showgrid="false"
     inkscape:zoom="2.3581135"
     inkscape:cx="97.886552"
     inkscape:cy="78.292049"
     inkscape:window-x="-8"
     inkscape:window-y="-8"
     inkscape:window-maximized="1"
     inkscape:current-layer="svg61" />
  <path
     style="fill:#000000;stroke-width:0.47999999"
     d="m 62.752536,159.44777 c -19.738108,-9.97452 -36.17673,-18.55675 -36.530272,-19.07163 -0.912372,-1.32872 -1.514775,-76.487329 -0.62283,-77.707134 0.323349,-0.442204 4.469756,-2.381088 9.214237,-4.308628 4.744481,-1.927541 17.958148,-7.313981 29.363702,-11.969869 l 20.737377,-8.465247 6.24861,2.195917 6.24861,2.195918 3.02435,-1.209933 c 7.97354,-3.189916 15.12681,-4.345454 24.92387,-4.026195 8.83531,0.287918 14.56221,1.599084 21.41143,4.90211 12.47169,6.014461 19.04782,13.861148 22.94396,27.376921 1.14265,3.963883 1.17513,13.318723 0.0602,17.349283 -1.15038,4.158811 -1.04625,7.575706 0.32029,10.510335 1.44601,3.105292 2.85495,4.254182 9.66296,7.879442 5.93579,3.16082 7.43567,4.6666 7.43914,7.46843 0.004,3.47856 -3.89437,7.12664 -11.91555,11.14963 -2.46255,1.23507 -4.67003,2.6056 -4.90552,3.0456 -0.23548,0.44002 -0.65509,3.20649 -0.93246,6.14773 -1.01309,10.74294 -3.8441,21.68075 -7.59131,29.32955 -1.88574,3.84917 -2.82951,4.17689 -9.0907,3.1567 -4.87177,-0.79379 -12.2328,-2.86831 -18.20932,-5.13182 l -2.96667,-1.12358 -2.4184,1.02174 c -1.33012,0.56196 -8.44074,4.60153 -15.80139,8.97681 -7.36064,4.37528 -13.68536,8.06494 -14.05493,8.19923 -0.36957,0.13429 -16.82131,-7.9168 -36.559414,-17.89131 z M 115.68,154.45234 c 5.412,-3.17712 10.86263,-6.50185 12.11251,-7.38828 l 2.27251,-1.6117 4.20749,1.8305 c 6.16509,2.68218 9.38276,3.77482 14.9178,5.06569 l 4.95031,1.15451 0.41986,-1.10432 c 1.00602,-2.64603 2.88337,-9.40728 3.53153,-12.71874 1.15613,-5.90668 1.30732,-7.20008 1.68242,-14.39227 l 0.35901,-6.88371 1.78702,-1.54476 c 0.98287,-0.84962 2.41736,-1.67082 3.18777,-1.8249 0.7704,-0.15409 2.19351,-0.61139 3.16246,-1.01625 l 1.76173,-0.73609 -2.96533,-1.98017 c -4.64579,-3.10234 -8.03048,-8.17727 -9.40413,-14.100362 l -0.72799,-3.138984 1.80741,-5.151254 c 1.72546,-4.917663 1.80661,-5.423324 1.78971,-11.15125 -0.0284,-9.622176 3.34629,-10.245706 -27.99864,5.173195 -14.87999,7.319626 -27.67529,13.87717 -28.43399,14.572325 L 102.72,98.769432 v 30.439288 c 0,23.07672 0.13967,30.57895 0.57743,31.01671 0.31758,0.31758 1.01958,0.44828 1.56,0.29045 0.54041,-0.15783 5.41057,-2.88643 10.82257,-6.06354 z m 25.68,-51.28778 c -2.376,-1.26982 -6.102,-2.89306 -8.28,-3.607184 -3.0444,-0.998203 -3.96,-1.501512 -3.96,-2.176829 0,-1.294742 1.66404,-2.150549 6.30199,-3.24108 2.2781,-0.535651 6.01005,-1.836955 8.29323,-2.891789 l 4.15124,-1.917878 -0.37323,2.495102 c -0.44642,2.984357 -0.44484,10.033478 0.003,12.215098 0.28704,1.39917 0.20993,1.55347 -0.74796,1.49666 -0.5874,-0.0348 -3.012,-1.10228 -5.388,-2.3721 z M 89.00571,157.64571 C 89.6753,156.97613 89.76,153.53011 89.76,126.95696 89.76,110.25541 89.56795,96.517373 89.32557,95.879846 88.86364,94.664899 90.09611,95.204184 55.247842,80.968555 47.014545,77.605229 40.262166,75.11052 39.752643,75.243763 39.255969,75.373646 38.694439,75.830933 38.5048,76.259957 38.31516,76.688981 38.268,89.589058 38.4,104.92679 c 0.199413,23.17078 0.355652,28.02605 0.923877,28.71025 0.376132,0.4529 3.724132,2.30789 7.44,4.12221 3.715865,1.81431 14.316123,7.19744 23.556123,11.96251 9.24,4.76507 17.05457,8.66702 17.36571,8.671 0.31115,0.004 0.90515,-0.33219 1.32,-0.74705 z m 28.80241,-80.717843 17.50058,-8.512133 -3.69435,-1.379337 C 128.2946,65.796917 122.2824,63.600701 95.40193,53.80824 90.98099,52.19771 86.71941,50.88 85.93174,50.88 85.14407,50.88 80.2292,52.632509 75.009802,54.774461 69.790411,56.916413 63.144,59.636266 60.24,60.818573 54.642562,63.097459 53.28,63.970872 53.28,65.28 c 0,1.206427 1.238818,2.02475 5.76,3.804874 4.381214,1.725009 37.04507,15.125889 38.64,15.852686 0.528,0.24061 1.3352,0.452088 1.79377,0.469954 0.45857,0.01786 8.70903,-3.797972 18.33435,-8.479647 z M 156.41604,61.8 c -1.09738,-2.051371 -5.94638,-6.750629 -9.05604,-8.776358 -6.76496,-4.406914 -14.31322,-6.562603 -23.28,-6.648478 -6.15971,-0.05899 -11.65435,0.505142 -10.97463,1.126764 0.42436,0.388096 3.31998,1.442405 20.09463,7.316549 15.1125,5.292096 23.00835,8.000448 23.41689,8.032214 0.20728,0.01613 0.1169,-0.456691 -0.20085,-1.050691 z"
     id="path71"
     inkscape:connector-curvature="0" />
</svg>
