<?xml version="1.0" encoding="UTF-8" standalone="no"?>
<!-- Created with Inkscape (http://www.inkscape.org/) -->

<svg
   xmlns:dc="http://purl.org/dc/elements/1.1/"
   xmlns:cc="http://creativecommons.org/ns#"
   xmlns:rdf="http://www.w3.org/1999/02/22-rdf-syntax-ns#"
   xmlns:svg="http://www.w3.org/2000/svg"
   xmlns="http://www.w3.org/2000/svg"
   xmlns:xlink="http://www.w3.org/1999/xlink"
   xmlns:sodipodi="http://sodipodi.sourceforge.net/DTD/sodipodi-0.dtd"
   xmlns:inkscape="http://www.inkscape.org/namespaces/inkscape"
   version="1.1"
   id="svg20"
   width="200.16"
   height="200.16"
   viewBox="0 0 200.16 200.16"
   sodipodi:docname="Continua.svg"
   inkscape:version="0.92.4 (5da689c313, 2019-01-14)">
  <metadata
     id="metadata26">
    <rdf:RDF>
      <cc:Work
         rdf:about="">
        <dc:format>image/svg+xml</dc:format>
        <dc:type
           rdf:resource="http://purl.org/dc/dcmitype/StillImage" />
        <dc:title></dc:title>
      </cc:Work>
    </rdf:RDF>
  </metadata>
  <defs
     id="defs24" />
  <sodipodi:namedview
     pagecolor="#ffffff"
     bordercolor="#666666"
     borderopacity="1"
     objecttolerance="10"
     gridtolerance="10"
     guidetolerance="10"
     inkscape:pageopacity="0"
     inkscape:pageshadow="2"
     inkscape:window-width="1920"
     inkscape:window-height="1018"
     id="namedview22"
     showgrid="false"
     inkscape:zoom="1.667438"
     inkscape:cx="130.62277"
     inkscape:cy="12.999434"
     inkscape:window-x="-8"
     inkscape:window-y="-8"
     inkscape:window-maximized="1"
     inkscape:current-layer="svg20" />
  <image
     sodipodi:absref="D:\Continua.png"
     xlink:href="Continua.png"
     y="0"
     x="0"
     id="image28"
     style="image-rendering:optimizeQuality"
     preserveAspectRatio="none"
     height="200.16"
     width="200.16" />
  <path
     style="fill:#000000;stroke-width:0.47999999"
     d="m 75.72,172.44946 -11.88,-3.63594 v -1.87911 c 0,-1.56971 0.138307,-1.83584 0.84,-1.61637 15.411293,4.82026 24.428074,7.36589 24.794074,6.99989 0.549148,-0.54915 1.428624,-0.23485 -11.954074,-4.27212 -13.187755,-3.97846 -13.68,-4.15826 -13.68,-4.99688 0,-0.74374 1.969896,-1.76893 3.39899,-1.76893 0.524602,0 5.574922,1.404 11.222943,3.12 5.648016,1.716 10.531963,3.12 10.853217,3.12 0.45481,0 0.51938,-5.1796 0.291706,-23.4 C 89.31877,121.06439 89.300083,120.71774 88.337232,120.56662 87.377453,120.41597 87.36,120.6162 87.36,131.77797 c 0,10.19937 -0.0784,11.33465 -0.764592,11.07134 -0.420528,-0.16138 -1.284528,-0.4239 -1.92,-0.58339 L 83.52,141.97593 V 130.60656 119.2372 L 71.64,116.1386 59.76,113.04 59.61251,111.00224 c -0.131006,-1.81002 -0.0038,-2.10316 1.136448,-2.62277 1.114868,-0.50797 2.619634,-0.24744 11.42749,1.97852 5.578954,1.40993 10.413552,2.66218 10.743552,2.78277 0.474437,0.17336 0.6,-4.36473 0.6,-21.685251 V 69.551016 l 1.664582,-0.69551 C 86.100106,68.472979 86.964106,68.16 87.104582,68.16 87.245064,68.16 87.36,78.519677 87.36,91.181501 V 114.203 l 1.8,0.47298 c 0.99,0.26014 2.88,0.73159 4.2,1.04766 4.414507,1.05705 4.08,0.0518 4.08,12.26066 v 10.83052 l 1.695859,-1.00058 1.695861,-1.00058 12.02665,3.35317 c 6.61465,1.84424 12.33151,3.35317 12.70413,3.35317 0.55596,0 0.6775,-1.42084 0.6775,-7.92 0,-6.01457 -0.14435,-7.92064 -0.6,-7.92268 -0.33,-10e-4 -1.41,-0.22762 -2.4,-0.50256 l -1.8,-0.49988 v -3.06394 -3.06393 l 1.55683,0.4465 c 0.85626,0.24557 1.93626,0.44649 2.4,0.44649 1.28654,0 1.00416,-1.29552 -0.35683,-1.63711 -0.66,-0.16565 -1.2,-0.47839 -1.2,-0.69499 0,-0.21659 0.54,-0.63984 1.2,-0.94056 l 1.2,-0.54676 V 98.949461 80.278344 l -4.44,-1.022496 c -2.442,-0.562368 -4.71,-1.020998 -5.04,-1.01917 -0.47179,0.0024 -0.6,5.029095 -0.6,23.523322 0,12.936 -0.12035,23.52 -0.26745,23.52 -0.14709,0 -1.22709,-0.24164 -2.4,-0.53698 L 111.36,124.20603 V 100.54602 76.886002 l -4.44,-1.019664 c -2.442,-0.560818 -6.87894,-1.59288 -9.859867,-2.293474 l -5.419872,-1.27381 0.139872,-3.098088 0.139867,-3.098092 2.551248,-0.967594 2.551248,-0.967589 6.808754,1.527557 c 3.74481,0.840158 6.97075,1.52243 7.16875,1.516157 0.198,-0.0063 0.36,-6.450178 0.36,-14.319787 V 38.583239 l 2.4,-0.767489 2.4,-0.76749 v 15.70421 15.704213 l 8.04,1.815552 c 10.05791,2.271226 11.00896,2.561818 11.35755,3.470242 0.15535,0.404822 0.28245,10.821029 0.28245,23.147126 v 22.411087 l 11.16,2.76128 c 6.138,1.5187 11.3888,2.75604 11.66845,2.74966 0.62036,-0.0142 0.92707,-73.249411 0.30838,-73.631788 -0.22055,-0.136306 -8.64936,-1.759282 -18.7307,-3.606612 -10.08134,-1.847332 -18.5449,-3.491782 -18.80792,-3.654335 -0.26302,-0.162553 -0.47821,-2.12415 -0.47821,-4.359104 0,-3.989081 0.0242,-4.072917 1.32,-4.574573 0.726,-0.281062 1.968,-0.519072 2.76,-0.528911 1.12112,-0.01393 39.71069,6.522025 44.8023,7.588208 l 1.12231,0.235011 -0.10873,42.340236 c -0.0598,23.287128 -0.21101,43.220468 -0.33604,44.296308 -0.22661,1.94995 -0.24404,1.96482 -5.57358,4.75344 l -5.34626,2.79736 -11.57248,-2.95343 c -6.36487,-1.6244 -11.7064,-2.95344 -11.87006,-2.95344 -0.16367,0 -0.35606,4.34644 -0.42752,9.65877 l -0.12994,9.65876 -3.84,2.11674 c -2.76649,1.52498 -4.24257,2.06458 -5.28,1.93017 -0.792,-0.10262 -5.436,-1.32573 -10.32,-2.71803 -4.884,-1.3923 -11.094,-3.13644 -13.8,-3.87586 l -4.92,-1.3444 v 12.65416 12.65417 l -4.49941,2.43276 c -2.474673,1.33802 -4.688673,2.41597 -4.92,2.39545 C 87.789264,176.1022 82.254,174.44922 75.72,172.44946 Z m 50.29974,-23.68139 c 0.17401,-0.28157 0.20834,-0.61999 0.0763,-0.75205 -0.26314,-0.26315 -9.88773,-3.05897 -18.57601,-5.3961 -3.036,-0.81667 -6.546,-1.80192 -7.8,-2.18944 l -2.28,-0.70456 v 1.16789 c 0,0.87569 0.330269,1.2488 1.32,1.49123 0.726,0.17784 6.504,1.78097 12.84,3.56252 11.77121,3.30982 13.8643,3.71923 14.41974,2.82051 z m 32.74648,-19.74941 c -0.16607,-0.49821 -20.63987,-6.12402 -22.32622,-6.13482 -0.33,-0.002 -0.6,0.28661 -0.6,0.64161 0,0.44151 3.37445,1.48634 10.68,3.30687 11.60547,2.89205 12.53688,3.05833 12.24622,2.18634 z M 53.64,165.56155 c -0.66181,-0.38547 -0.84,-1.14221 -0.84,-3.56729 v -3.07803 l -5.4,2.52007 -5.4,2.52007 -3.262691,-0.95344 c -3.000414,-0.8768 -3.251221,-1.0508 -3.12,-2.16452 0.126959,-1.07755 1.563471,-1.89163 13.029318,-7.38379 l 12.886627,-6.17272 2.322356,0.99905 c 2.969078,1.27726 4.545345,1.25954 7.198809,-0.081 5.129611,-2.5914 6.176991,-9.01659 2.129583,-13.064 -4.052789,-4.05279 -10.436559,-3.00587 -13.097045,2.14787 -0.877071,1.69902 -1.059019,2.64736 -0.858226,4.47321 l 0.254823,2.31708 -6.58178,3.13873 C 49.281802,148.9392 43.89,151.50182 40.92,152.90762 l -5.4,2.556 v -2.77768 -2.77769 l 8.714866,-4.18526 8.714865,-4.18526 -0.282134,-14.78673 -0.282139,-14.78673 1.189857,-0.54213 c 0.654423,-0.29818 1.395691,-0.54214 1.647269,-0.54214 0.277243,0 0.457416,4.55967 0.457416,11.57585 v 11.57586 l 1.981248,-1.78994 c 2.876323,-2.59858 5.675688,-3.69035 9.524088,-3.71444 5.630726,-0.0352 10.854259,3.23418 13.148578,8.22976 1.480646,3.22392 1.425196,9.0836 -0.113967,12.04291 -3.434035,6.60253 -10.641912,9.64054 -17.416253,7.34067 l -2.7163,-0.92217 -2.2037,1.11995 L 55.68,157.4584 v 4.3108 c 0,4.47675 -0.206352,4.86035 -2.04,3.79235 z"
     id="path34"
     inkscape:connector-curvature="0" />
  <path
     style="fill:none;stroke-width:0.47999999"
     d="m 75.72,172.41461 -11.88,-3.64652 v -1.8754 c 0,-1.42261 0.164515,-1.81227 0.681408,-1.61392 3.279672,1.25853 24.878779,7.56105 25.112203,7.32762 0.646157,-0.64616 -0.971549,-1.26254 -11.915481,-4.54005 C 64.214218,164.02217 63.84,163.88688 63.84,163.04893 c 0,-0.7173 1.95336,-1.76893 3.28572,-1.76893 0.462298,0 5.474136,1.4031 11.137411,3.11801 5.66328,1.7149 10.568923,3.1189 10.901434,3.12 0.479549,0.001 0.578808,-4.83699 0.48,-23.39801 L 89.52,120.72 l -1.08,-0.15338 -1.08,-0.15339 v 11.31339 c 0,6.22236 -0.114936,11.31338 -0.255418,11.31338 -0.140476,0 -1.004476,-0.31298 -1.92,-0.69551 L 83.52,141.64898 v -11.2304 -11.2304 L 71.76,116.1405 60,113.09283 v -2.29727 c 0,-2.06907 0.12301,-2.32815 1.238333,-2.60807 0.993773,-0.24942 14.176003,2.76905 21.441667,4.90972 0.791328,0.23314 0.84,-1.01947 0.84,-21.618421 V 69.612883 l 1.738618,-0.726441 C 86.214859,68.486899 87.052992,68.16 87.121138,68.16 c 0.06815,0 0.09576,2.862 0.06138,6.36 -0.03437,3.498 -0.0085,13.857677 0.05748,23.021501 l 0.12,16.661499 2.04,0.5212 c 1.122,0.28667 3.336,0.89515 4.92,1.35218 l 2.88,0.83096 0.24,10.91094 0.24,10.91094 1.640942,-0.88064 1.64095,-0.88064 8.19905,2.27016 c 4.50948,1.24858 10.19706,2.81568 12.63906,3.48244 l 4.44,1.21227 v -8.12641 c 0,-6.17969 -0.14373,-8.12704 -0.6,-8.12908 -0.33,-10e-4 -1.41,-0.22762 -2.4,-0.50256 l -1.8,-0.49988 v -3.054 -3.05399 l 2.4,0.63311 c 2.24055,0.59105 2.4,0.57436 2.4,-0.2511 0,-0.48631 -0.432,-1.02132 -0.96,-1.1889 -0.528,-0.16758 -0.96,-0.49854 -0.96,-0.73546 0,-0.23692 0.432,-0.66196 0.96,-0.94454 0.93473,-0.50025 0.96,-1.00503 0.96,-19.176898 v -18.66312 l -4.25942,-0.999988 C 119.6379,78.689995 117.3699,78.24 116.94058,78.24 c -0.71018,0 -0.78058,2.125958 -0.78058,23.57136 0,20.23449 -0.0971,23.53409 -0.68592,23.30814 -0.37725,-0.14477 -1.45725,-0.40792 -2.4,-0.58478 L 111.36,124.21316 v -23.67423 c 0,-22.13608 -0.0546,-23.689725 -0.84,-23.912628 -0.462,-0.131112 -4.89,-1.167278 -9.84,-2.302593 l -9,-2.064207 v -2.950641 -2.950642 l 2.368982,-1.019112 c 1.302941,-0.56051 2.652941,-1.016525 3,-1.013371 0.34706,0.0034 3.331018,0.648576 6.631018,1.434264 3.3,0.785688 6.378,1.431106 6.84,1.434264 0.78134,0.0053 0.84,-0.993427 0.84,-14.302646 V 38.583239 l 2.4,-0.767489 2.4,-0.76749 V 52.804354 68.56045 l 2.28,0.50352 c 6.27142,1.384996 15.33542,3.471033 16.07541,3.699681 0.77643,0.239904 0.8442,1.887931 0.96,23.343931 l 0.12459,23.085808 11.64612,2.95718 c 6.40537,1.62645 11.75137,2.85194 11.88,2.72331 0.44856,-0.44855 0.24156,-73.452478 -0.20905,-73.73097 -0.24361,-0.150561 -8.71423,-1.791984 -18.82359,-3.647606 -10.34446,-1.898775 -18.54201,-3.627754 -18.74972,-3.95458 -0.20298,-0.319398 -0.37237,-2.23442 -0.37641,-4.255603 L 120.96,35.610242 123,34.935369 c 1.41955,-0.469616 2.69695,-0.556499 4.2,-0.285666 1.188,0.214065 11.31446,1.988752 22.50324,3.94375 11.18879,1.954998 20.48733,3.787688 20.66344,4.072643 0.17612,0.284956 0.25911,7.055654 0.18443,15.046003 -0.0747,7.990344 -0.14273,27.703901 -0.15123,43.807901 l -0.0155,29.28 -5.43295,2.80968 -5.43295,2.80967 -11.4838,-2.92967 c -6.31609,-1.61133 -11.75176,-2.92968 -12.07926,-2.92968 -0.45436,0 -0.59546,2.30572 -0.59546,9.73074 v 9.73074 l -3.97745,2.11232 -3.97745,2.11233 -5.74255,-1.57751 c -3.1584,-0.86763 -9.82288,-2.74101 -14.80995,-4.16307 -4.98706,-1.42205 -9.253062,-2.58555 -9.479997,-2.58555 -0.226929,0 -0.416525,5.778 -0.421315,12.84 l -0.0087,12.84 -4.285488,2.28 c -2.357021,1.254 -4.459099,2.25775 -4.671288,2.23056 -0.212189,-0.0272 -5.731795,-1.69036 -12.265795,-3.69595 z m 49.76074,-22.94597 c 0.4176,-0.16024 0.75926,-0.58309 0.75926,-0.93967 0,-0.64044 -1.64314,-1.2143 -10.8,-3.77183 -2.376,-0.66363 -7.344,-2.05198 -11.04,-3.08523 -5.968805,-1.66863 -6.754152,-1.79106 -7.025501,-1.09527 -0.168024,0.43085 -0.149477,0.95311 0.04123,1.16058 0.190699,0.20748 5.080181,1.68559 10.865501,3.2847 8.80937,2.43498 16.0169,4.50266 16.35952,4.69318 0.0444,0.0247 0.42241,-0.0862 0.84,-0.24646 z M 159.096,128.70696 c -0.49185,-0.44551 -21.77819,-5.82696 -23.04856,-5.82696 -0.42209,0 -0.68084,0.27 -0.575,0.6 0.2498,0.77884 23.01094,6.61297 23.62356,6.05519 0.288,-0.26223 0.288,-0.56736 0,-0.82823 z M 53.64,165.56155 c -0.662616,-0.38594 -0.84,-1.14307 -0.84,-3.5854 0,-1.70288 -0.111926,-3.09615 -0.248722,-3.09615 -0.136795,0 -2.400873,1.08 -5.031278,2.4 -2.630407,1.32 -5.272483,2.38326 -5.871279,2.3628 C 41.049924,163.6223 39.48,163.22569 38.16,162.76137 c -1.963979,-0.69086 -2.4,-1.05013 -2.4,-1.97757 0,-1.01013 1.404077,-1.8042 12.916363,-7.30482 l 12.916368,-6.1715 2.292619,0.98626 c 2.939112,1.26437 4.521677,1.24368 7.169069,-0.0937 5.157687,-2.60558 6.239803,-9.08178 2.193581,-13.128 -4.051555,-4.05156 -10.485946,-2.97018 -13.161043,2.21187 -0.876951,1.69878 -1.05901,2.64746 -0.858312,4.47247 l 0.254731,2.31634 -4.421688,2.06978 C 52.629758,147.28083 47.238,149.8436 43.08,151.83748 l -7.56,3.62525 v -2.76513 -2.76514 l 8.714023,-4.1696 8.714023,-4.1696 -0.272472,-14.81852 -0.272472,-14.81851 1.181036,-0.53812 c 0.649569,-0.29596 1.386868,-0.53811 1.638446,-0.53811 0.277224,0 0.457416,4.55415 0.457416,11.5608 v 11.56079 l 2.186626,-1.92475 c 2.718518,-2.39294 5.69674,-3.43822 9.778881,-3.43215 8.019687,0.0119 14.62345,7.29505 13.804987,15.22519 -0.950083,9.20544 -10.045008,15.1904 -18.6468,12.27064 l -2.7163,-0.92202 -2.2037,1.11995 L 55.68,157.4584 v 4.3108 c 0,4.47675 -0.206352,4.86035 -2.04,3.79235 z"
     id="path30"
     inkscape:connector-curvature="0" />
</svg>
