<?xml version="1.0" encoding="UTF-8" standalone="no"?>
<!-- Created with Inkscape (http://www.inkscape.org/) -->

<svg
   xmlns:dc="http://purl.org/dc/elements/1.1/"
   xmlns:cc="http://creativecommons.org/ns#"
   xmlns:rdf="http://www.w3.org/1999/02/22-rdf-syntax-ns#"
   xmlns:svg="http://www.w3.org/2000/svg"
   xmlns="http://www.w3.org/2000/svg"
   xmlns:xlink="http://www.w3.org/1999/xlink"
   xmlns:sodipodi="http://sodipodi.sourceforge.net/DTD/sodipodi-0.dtd"
   xmlns:inkscape="http://www.inkscape.org/namespaces/inkscape"
   version="1.1"
   id="svg20"
   width="417"
   height="417"
   viewBox="0 0 417 417"
   sodipodi:docname="解除分级.svg"
   inkscape:version="0.92.4 (5da689c313, 2019-01-14)">
  <metadata
     id="metadata26">
    <rdf:RDF>
      <cc:Work
         rdf:about="">
        <dc:format>image/svg+xml</dc:format>
        <dc:type
           rdf:resource="http://purl.org/dc/dcmitype/StillImage" />
        <dc:title></dc:title>
      </cc:Work>
    </rdf:RDF>
  </metadata>
  <defs
     id="defs24" />
  <sodipodi:namedview
     pagecolor="#ffffff"
     bordercolor="#666666"
     borderopacity="1"
     objecttolerance="10"
     gridtolerance="10"
     guidetolerance="10"
     inkscape:pageopacity="0"
     inkscape:pageshadow="2"
     inkscape:window-width="1920"
     inkscape:window-height="1018"
     id="namedview22"
     showgrid="false"
     inkscape:zoom="0.56594724"
     inkscape:cx="85.356545"
     inkscape:cy="38.695588"
     inkscape:window-x="-8"
     inkscape:window-y="-8"
     inkscape:window-maximized="1"
     inkscape:current-layer="svg20" />
  <image
     sodipodi:absref="D:\解除分级.png"
     xlink:href="解除分级.png"
     y="0"
     x="0"
     id="image28"
     style="image-rendering:optimizeQuality"
     preserveAspectRatio="none"
     height="417"
     width="417" />
  <path
     style="fill:#000000"
     d="m 262.06297,413.0795 c -11.56037,-14.59616 -9.86909,-32.07576 4.25754,-44.00217 8.80429,-7.43302 28.09951,-20.20713 36.24433,-23.99501 20.03836,-9.31915 27.80067,-14.79367 36.35036,-25.63679 10.28677,-13.04617 9.1622,-21.17724 -3.1914,-23.07502 l -3.2238,-0.49525 -8.73035,15.31237 c -4.80169,8.4218 -9.12258,15.90615 -9.60198,16.63189 -0.69808,1.05678 -3.20208,0.61303 -12.57604,-2.22869 l -11.70441,-3.54819 -4.97572,3.93308 c -6.53906,5.16883 -21.09319,13.32707 -30.16488,16.90876 -42.10827,16.62524 -88.33652,10.29578 -124.45156,-17.0396 l -6.64874,-5.03241 -11.00941,4.10142 c -8.41746,3.13582 -11.20164,3.80533 -11.8259,2.84377 -4.421793,-6.81101 -35.816532,-61.96672 -35.833827,-62.9545 -0.01255,-0.71674 3.806288,-4.90316 8.486304,-9.30316 l 8.509121,-8 -1.176951,-10.82906 C 76.748854,199.4365 91.84558,159.18326 119.76756,132.75797 c 3.33699,-3.15811 5.66354,-5.99154 5.17011,-6.2965 -0.49344,-0.30495 -4.5786,-6.04604 -9.07814,-12.75797 C 98.938675,88.462819 90.332924,64.657122 89.580559,41.009174 89.396295,35.217487 88.658679,30.037477 87.693768,27.758927 85.570431,22.74486 82.27694,10.61603 81.445869,4.75 L 80.772912,0 H 90.867404 100.9619 l 0.58634,2.75 c 11.46353,53.764781 65.35299,105.3624 145.93232,139.72602 22.06181,9.40842 73.58427,24.92087 75.63736,22.77301 0.39379,-0.41197 3.00825,-4.46153 5.80991,-8.99903 4.37849,-7.09129 4.82086,-8.25 3.14962,-8.25 -3.43044,0 -29.1754,-4.97777 -42.07745,-8.13564 -16.79288,-4.11019 -42.88911,-12.675 -59.17369,-19.42087 -19.28685,-7.98956 -39.86752,-18.61809 -42.2623,-21.825628 -1.86172,-2.493583 -1.90252,-2.92503 -0.51193,-5.413691 2.57648,-4.610991 5.4284,-4.03351 23.15444,4.688514 34.92782,17.186085 70.53148,28.856765 108.29348,35.497995 22.79297,4.00861 20.41094,4.24186 24.75722,-2.42421 C 350.52534,121.35279 374,75.64113 374,73.049048 374,72.683875 366.20327,72.578194 356.67392,72.814201 327.07515,73.547254 289.02304,70.293948 258.84289,64.450033 212.77388,55.529489 168.35482,39.0305 138,19.564226 c -3.575,-2.292616 -7.16967,-4.575247 -7.98816,-5.072514 -2.07033,-1.257821 3.72137,6.469709 12.02327,16.041958 7.21387,8.317721 20.38471,20.372572 32.37406,29.630952 8.09486,6.250986 9.11067,7.628037 8.22628,11.151737 -0.78502,3.127749 -3.96409,5.068957 -7.0379,4.29748 C 168.58317,73.853341 137.30242,45.646466 125.56739,30.5 117.65977,20.2936 107,3.0930912 107,0.53983807 107,0.24292713 115.54207,0 125.98239,0 h 18.98238 l 6.54535,4.0061944 C 168.42761,14.360842 197.48831,27.109557 219.5,33.832854 c 47.23738,14.428288 98.91713,20.603349 151.26498,18.074211 25.10444,-1.212898 28.98122,-0.949975 31.79223,2.156147 1.77835,1.965063 1.69057,4.188353 -3.0098,76.230438 -2.66287,40.81349 -5.33789,75.28984 -5.94449,76.61411 -1.51205,3.30093 -3.7919,4.51261 -6.98351,3.71157 -4.44732,-1.11621 -4.72856,-3.67611 -3.04547,-27.72019 0.84894,-12.12784 1.40461,-22.72558 1.2348,-23.55055 -0.16981,-0.82497 -4.9861,28.44324 -10.70287,65.04046 -10.04843,64.32736 -10.35135,66.742 -9.10783,72.60173 1.77728,8.37492 0.76304,17.37462 -2.85811,25.36088 -2.30769,5.0895 -4.97446,8.48441 -12.2528,15.59833 -5.11672,5.00113 -11.61034,10.682 -14.43027,12.62416 l -5.12713,3.53119 -1.75982,10.19733 C 323.50405,393.6571 322.67697,396 317.3803,396 c -5.89993,0 -6.46622,-4.25537 -3.01926,-22.68826 l 2.27921,-12.18827 -3.57012,1.49079 c -7.97807,3.33143 -26.58875,15.56734 -33.82013,22.23563 -3.66542,3.38001 -4.25,4.48036 -4.25,7.99979 0,7.83271 9.79434,15.04207 26,19.13792 4.675,1.18157 9.15893,2.79273 9.96429,3.58035 C 312.23592,416.81159 309.31965,417 288.79832,417 H 265.16806 Z M 219.72494,312.99117 c 21.46359,-2.85296 43.19308,-14.97892 56.41997,-31.48468 2.86769,-3.57857 5.55098,-6.50649 5.96286,-6.50649 0.41189,0 3.45969,1.61482 6.77289,3.58848 5.66625,3.37536 9.61482,3.91838 7.18263,0.98778 -0.56861,-0.68513 -2.74659,-4.36161 -4.83996,-8.16996 -3.61089,-6.5691 -3.80021,-7.35982 -3.69083,-15.41529 0.13704,-10.09226 2.7114,-23.18347 6.19264,-31.49101 2.08529,-4.97625 2.41875,-7.02585 1.95439,-12.01232 -0.85793,-9.2128 -0.7597,-9.11156 -9.98346,-10.28908 -4.50082,-0.57458 -8.32661,-0.90139 -8.50176,-0.72625 -0.17514,0.17515 0.41592,3.85302 1.31347,8.17305 1.86567,8.97975 2.07853,20.3454 0.53102,28.3546 -1.53367,7.93762 -5.02832,18 -6.25138,18 -0.57723,0 -6.60406,-3.17716 -13.39295,-7.06036 l -12.34344,-7.06036 3.00851,-5.33079 3.00851,-5.33078 -8.78403,-0.58371 c -27.57006,-1.83206 -30.5525,-1.881 -29.77382,-0.48866 2.67033,4.77476 20.08202,31.83319 20.4898,31.84192 0.275,0.006 1.76346,-2.23884 3.30769,-4.98828 1.54422,-2.74944 3.18699,-4.99898 3.65058,-4.99898 1.07088,0 22.10102,11.89692 23.84669,13.49026 1.0551,0.96303 0.52266,2.18077 -2.78081,6.35997 -8.12951,10.28461 -22.2,19.2413 -36.56922,23.27846 -16.55743,4.65195 -36.98009,2.43925 -52.40986,-5.67838 -12.40036,-6.52385 -27.69529,-20.85738 -24.78952,-23.23131 1.32723,-1.08431 23.78924,-14.219 24.31632,-14.219 0.17202,0 1.57622,2.24954 3.12044,4.99898 1.54423,2.74944 3.03269,4.99417 3.30769,4.98828 0.4874,-0.0104 20.1326,-30.38378 20.87194,-32.27 0.22801,-0.58171 -3.06108,-0.72033 -8.5,-0.35822 -4.87957,0.32487 -13.72727,0.8715 -19.66157,1.21474 l -10.78962,0.62408 2.98739,5.29336 c 2.78166,4.92884 2.87047,5.39303 1.28962,6.74083 C 164.48889,244.68899 143.17818,257 142.36505,257 c -0.94155,0 -4.19179,-8.93728 -5.82903,-16.02825 -5.31442,-23.01704 1.38525,-48.04772 17.4705,-65.27165 3.86948,-4.14341 9.53161,-9.19034 12.5825,-11.2154 3.05089,-2.02507 5.40395,-3.79719 5.22903,-3.93805 -1.22579,-0.98708 -17.66366,-9.08324 -17.51114,-8.62478 0.10578,0.31797 -2.02828,2.60313 -4.74236,5.07813 -10.96408,9.99828 -16.40608,17.29088 -22.64884,30.3508 -6.12802,12.81986 -8.13161,21.90962 -8.18855,37.1492 -0.0609,16.29602 1.2194,22.05999 8.91353,40.12988 0.2646,0.62143 -2.4713,2.78096 -6.0798,4.79894 C 117.9524,271.4468 115,273.58524 115,274.18091 c 0,1.69496 4.04856,7.81909 5.16907,7.81909 0.55328,0 3.80778,-1.56687 7.23223,-3.48193 l 6.22628,-3.48193 4.93621,6.19058 c 9.92839,12.45135 25.98725,23.26779 42.62004,28.70669 6.56574,2.14699 24.38717,4.92354 28.31617,4.41161 1.1,-0.14332 5.70122,-0.75256 10.22494,-1.35385 z M 353.4069,276.25 c 1.03244,-5.01792 25.59326,-162.66965 25.58474,-164.22406 -0.005,-0.83927 -3.87328,5.67406 -8.59707,14.47406 -4.72378,8.8 -9.38413,16.9 -10.35632,18 -0.9722,1.1 -3.04648,4.25 -4.60952,7 -1.56304,2.75 -6.74971,11.31985 -11.52593,19.04411 -14.1445,22.87492 -31.31667,58.62456 -34.35811,71.52791 -3.33295,14.14014 -1.33538,22.80283 5.98145,25.93918 8.86991,3.80209 30.68466,10.36819 36.1444,10.87923 0.6438,0.0603 1.42516,-1.12793 1.73636,-2.64043 z M 216.4134,202.5231 C 221.13603,193.4608 225,185.5858 225,185.0231 225,184.46039 222.8051,184 220.12244,184 c -5.92025,0 -7.47269,-1.53005 -6.96405,-6.86363 l 0.37204,-3.90126 -4.8415,-1.11756 C 201.8561,170.54035 202,170.45037 202,176.3 c 0,2.915 -0.54,5.84 -1.2,6.5 -0.66,0.66 -3.3975,1.2 -6.08333,1.2 -2.68584,0 -4.73334,0.43157 -4.55,0.95903 0.42612,1.226 17.27849,33.99392 17.49673,34.02083 0.0899,0.0111 4.02737,-7.39447 8.75,-16.45676 z m 93.94425,-14.14691 c 0.95044,-1.99309 1.59628,-3.73497 1.43521,-3.87085 -0.16107,-0.13588 -5.91786,-1.67392 -12.79286,-3.41788 -25.58718,-6.49059 -61.62622,-19.83814 -84.17433,-31.17511 -4.41795,-2.2213 -8.20539,-3.86597 -8.41654,-3.65482 -0.97376,0.97377 11.20564,14.09354 18.50491,19.93368 17.7997,14.24152 41.26958,22.28527 72.08596,24.70577 5.775,0.4536 10.75415,0.88734 11.06479,0.96387 0.31063,0.0765 1.34242,-1.49156 2.29286,-3.48466 z M 194.98594,151.47956 c -1.71059,-2.48625 -4.48588,-7.46031 -6.16733,-11.05348 -2.93547,-6.27296 -3.50575,-6.83177 -14.32558,-14.03752 C 150.52487,110.42636 126.74413,88.950121 112.2218,70.1518 108.24981,65.01029 105,61.334703 105,61.983828 c 0,5.851855 13.68753,35.12313 19.8831,42.520732 1.9893,2.37525 4.7419,6.26055 6.1169,8.634 6.05894,10.45861 23.67867,24.77653 40.52415,32.93021 8.55842,4.14251 23.02254,9.79828 25.27389,9.88261 0.77946,0.0292 0.0555,-1.75733 -1.8121,-4.47182 z M 368.54051,409.75 c 0.34315,-3.9875 3.22648,-45.84779 6.4074,-93.02286 5.12375,-75.98845 5.9876,-85.9984 7.57278,-87.75 2.33416,-2.57922 5.94222,-2.51423 8.61156,0.15511 1.85855,1.85855 2.06238,2.91758 1.5879,8.25 -0.29939,3.36476 -3.15878,45.15525 -6.35418,92.86775 L 380.55615,417 h -6.31978 -6.31977 z"
     id="path34"
     inkscape:connector-curvature="0" />
</svg>
