<?xml version="1.0" encoding="UTF-8" standalone="no"?>
<!-- Created with Inkscape (http://www.inkscape.org/) -->

<svg
   xmlns:dc="http://purl.org/dc/elements/1.1/"
   xmlns:cc="http://creativecommons.org/ns#"
   xmlns:rdf="http://www.w3.org/1999/02/22-rdf-syntax-ns#"
   xmlns:svg="http://www.w3.org/2000/svg"
   xmlns="http://www.w3.org/2000/svg"
   xmlns:xlink="http://www.w3.org/1999/xlink"
   xmlns:sodipodi="http://sodipodi.sourceforge.net/DTD/sodipodi-0.dtd"
   xmlns:inkscape="http://www.inkscape.org/namespaces/inkscape"
   version="1.1"
   id="svg10"
   width="200.16"
   height="200.16"
   viewBox="0 0 200.16 200.16"
   sodipodi:docname="Drygioni.svg"
   inkscape:version="0.92.4 (5da689c313, 2019-01-14)">
  <metadata
     id="metadata16">
    <rdf:RDF>
      <cc:Work
         rdf:about="">
        <dc:format>image/svg+xml</dc:format>
        <dc:type
           rdf:resource="http://purl.org/dc/dcmitype/StillImage" />
        <dc:title></dc:title>
      </cc:Work>
    </rdf:RDF>
  </metadata>
  <defs
     id="defs14" />
  <sodipodi:namedview
     pagecolor="#ffffff"
     bordercolor="#666666"
     borderopacity="1"
     objecttolerance="10"
     gridtolerance="10"
     guidetolerance="10"
     inkscape:pageopacity="0"
     inkscape:pageshadow="2"
     inkscape:window-width="1920"
     inkscape:window-height="1018"
     id="namedview12"
     showgrid="false"
     inkscape:zoom="2.960409"
     inkscape:cx="103.17261"
     inkscape:cy="64.524267"
     inkscape:window-x="-8"
     inkscape:window-y="-8"
     inkscape:window-maximized="1"
     inkscape:current-layer="svg10" />
  <image
     sodipodi:absref="D:\Drygioni.png"
     xlink:href="Drygioni.png"
     y="0"
     x="0"
     id="image18"
     style="image-rendering:optimizeQuality"
     preserveAspectRatio="none"
     height="200.16"
     width="200.16" />
  <path
     style="fill:#000000;stroke-width:0.47999999"
     d="m 159.01735,193.59788 c -2.58354,-3.60917 -5.71885,-7.91546 -6.96735,-9.56954 -1.24849,-1.65409 -3.8877,-5.27995 -5.8649,-8.05748 l -3.59491,-5.05005 4.18491,-2.73128 c 2.30169,-1.5022 4.42328,-2.75338 4.71463,-2.7804 0.4591,-0.0426 5.76006,6.94027 19.97561,26.31346 1.92206,2.61942 4.10735,5.58942 4.85618,6.6 l 1.36153,1.83741 h -6.98417 -6.98418 z M 175.92,186.48564 c -5.544,-7.52056 -12.11019,-16.41389 -14.59154,-19.76294 l -4.51153,-6.08919 1.29879,-1.11718 1.2988,-1.11718 6.04642,8.28042 c 3.32553,4.55424 9.93476,13.68043 14.68719,20.28043 4.75242,6.6 8.84971,12.27 9.10509,12.6 0.35339,0.45665 0.0203,0.59993 -1.39445,0.5997 L 186,200.1594 Z M 132.09111,165.5877 c -1.60402,-0.97795 -2.97111,-3.4165 -2.97111,-5.29974 0,-2.48277 1.46504,-4.15045 6.6264,-7.54293 2.82348,-1.85583 6.68607,-4.70187 8.58353,-6.32452 3.83536,-3.27988 5.58639,-4.01519 7.94086,-3.33463 4.04228,1.16844 5.88957,5.36055 3.98508,9.04344 -1.21142,2.34261 -8.577,8.37717 -14.76239,12.0947 -4.43138,2.66334 -6.72503,2.996 -9.40237,1.36368 z M 92.4,159.99569 C 72.648922,157.52041 54.917496,146.26695 44.067977,129.32121 33.488583,112.79736 31.133707,90.574752 37.932088,71.417741 c 10.43324,-29.3996 41.073766,-47.881388 71.814062,-43.316892 35.85513,5.323973 61.16318,38.153263 56.79345,73.671741 -4.14399,33.68355 -32.72573,58.85902 -66.3873,58.47549 -3.471766,-0.0396 -6.9603,-0.15313 -7.7523,-0.25239 z m 19.85758,-9.97387 c 23.1185,-6.0728 39.90875,-24.25861 43.98658,-47.64264 0.88357,-5.06675 0.89996,-14.51938 0.0336,-19.375718 -2.5105,-14.072515 -9.71731,-26.634873 -20.40108,-35.561608 -6.06967,-5.071461 -5.5369,-5.038732 -10.21721,-0.627666 -4.59647,4.332054 -11.16224,8.812196 -15.13949,10.330398 -3.64026,1.389576 -8.32758,1.376299 -12.822998,-0.03629 -2.721302,-0.85512 -3.207945,-1.152572 -2.616696,-1.59938 0.399476,-0.301891 2.049432,-1.574894 3.666562,-2.828894 2.793842,-2.16648 3.091422,-2.280355 5.976692,-2.287094 6.10445,-0.01426 12.7965,-2.469887 17.70603,-6.497156 3.85672,-3.163657 3.8536,-3.203763 -0.40034,-5.142421 C 114.92265,35.514628 108.64287,34.083271 100.08,33.750414 70.241899,32.590547 44.706095,53.45459 39.539733,83.214869 c -1.124105,6.475291 -0.703517,17.249121 0.912942,23.385971 2.427663,9.21659 6.051477,16.50147 11.670515,23.46102 7.976919,9.87994 20.186554,17.47162 32.35681,20.11874 2.508,0.54551 4.992,1.09284 5.52,1.2163 0.528,0.12346 4.632,0.15876 9.12,0.0785 7.04794,-0.12612 8.83836,-0.32421 13.13758,-1.45353 z M 92.88,145.73821 C 87.601757,144.34919 85.569826,143.60344 81.574637,141.58899 76.5648,139.06294 69.6,134.0267 69.6,132.93015 c 0,-0.22571 1.566,0.43415 3.48,1.46637 18.095093,9.75864 39.85173,10.10351 58.68,0.93013 l 4.8,-2.33861 -1.92,1.72967 c -4.73769,4.26806 -12.29899,8.30091 -19.72781,10.52192 -3.51947,1.05223 -5.45618,1.30882 -10.99219,1.45635 -5.893411,0.15705 -7.251379,0.0393 -11.04,-0.95777 z M 88.62469,129.0891 C 65.606808,125.8976 47.125053,109.10907 42.310873,87.018379 l -0.440568,-2.021616 1.84113,0.939274 c 1.012621,0.5166 2.930536,1.368677 4.262033,1.893504 l 2.420902,0.95423 1.391035,-2.751883 c 2.893161,-5.723563 8.896896,-12.535522 14.721384,-16.703194 4.232865,-3.0288 11.276553,-6.269011 16.773211,-7.715961 4.160645,-1.095255 5.759035,-1.263562 12,-1.263562 6.24096,0 7.83936,0.168307 12,1.263562 5.49666,1.44695 12.54035,4.687161 16.77321,7.715961 5.83226,4.173231 11.82821,10.979578 14.73073,16.721688 1.15785,2.290613 1.54373,2.696712 2.22821,2.344968 3.63819,-1.869624 7.43218,-3.471019 7.66704,-3.23616 0.56377,0.563765 -2.39856,9.815506 -4.45406,13.910645 -7.54958,15.040865 -20.89126,25.492205 -37.18513,29.129345 -4.88042,1.08942 -13.850218,1.52288 -18.41531,0.88992 z M 100.8,123.13854 c 10.66875,-1.62793 19.51658,-6.3063 27.34175,-14.45718 3.88603,-4.04777 7.65426,-9.305664 9.30001,-12.976502 l 0.88177,-1.966767 -1.54746,-3.069043 C 131.04113,79.295035 121.86457,71.590954 109.58236,67.83887 105.75188,66.668698 104.64721,66.548986 97.68,66.548986 c -6.967214,0 -8.071877,0.119712 -11.902363,1.289884 -13.710288,4.188351 -25.064007,14.326119 -29.644099,26.469312 -0.799047,2.1185 -1.688847,4.323572 -1.977336,4.900157 -0.430368,0.860141 -0.294178,1.441411 0.758664,3.237951 5.017977,8.56253 15.96706,16.68214 26.245814,19.46333 7.311442,1.97831 12.571166,2.30743 19.63932,1.22892 z M 83.26331,110.02658 C 81.279019,108.58917 77.28,104.3238 77.28,103.64477 c 0,-0.20904 0.486,-0.5277 1.08,-0.70814 1.520976,-0.462 4.082779,-2.46071 4.748621,-3.704848 2.579918,-4.82062 0.20567,-10.888195 -4.853693,-12.40402 l -1.914403,-0.573572 1.069737,-1.906992 c 0.588356,-1.048848 2.2332,-2.97106 3.65521,-4.271582 l 2.585472,-2.364586 0.859464,2.544485 c 2.421158,7.16796 11.492966,8.105501 15.194386,1.570291 C 100.29847,80.777611 100.78776,79.218 100.7921,78.36 c 0.009,-1.806293 0.0384,-1.817098 2.07174,-0.765634 2.58665,1.337588 4.19305,2.706884 5.90091,5.029944 1.87515,2.550629 1.9989,2.9958 0.71994,2.589874 -1.6662,-0.52883 -5.18198,0.723106 -6.92469,2.465818 -3.185768,3.185769 -3.301371,7.971067 -0.27581,11.416992 1.70997,1.947556 4.02693,2.817826 6.89325,2.589186 l 2.0832,-0.16618 -0.73009,1.44 c -1.16515,2.29807 -3.70929,5.20838 -5.84982,6.69178 -1.08797,0.75396 -2.04388,1.28474 -2.12426,1.17952 -0.0804,-0.10521 -0.52398,-1.21116 -0.98579,-2.45765 -1.920515,-5.18377 -7.804533,-7.13078 -12.331086,-4.08033 -1.767149,1.19088 -3.306975,3.53214 -3.751032,5.70334 l -0.292469,1.43002 z M 56.821608,62.618246 C 55.369387,60.401875 56.559302,58.014125 61.609747,53.010106 68.105803,46.573763 74.925,43.2 81.438365,43.2 c 2.918894,0 4.416475,0.495332 6.651379,2.199975 l 1.624142,1.238794 -1.969881,2.9671 -1.969887,2.967096 -3.887059,0.0109 c -7.649981,0.02141 -15.837533,3.337373 -20.811009,8.428478 -1.515826,1.551677 -2.913072,2.822683 -3.104986,2.824455 -0.191914,0.0019 -0.709171,-0.546567 -1.149456,-1.218528 z"
     id="path22"
     inkscape:connector-curvature="0" />
  <path
     style="fill:none;stroke-width:0.47999999"
     d="m 159.01735,193.59788 c -2.58354,-3.60917 -5.71885,-7.91546 -6.96735,-9.56954 -1.24849,-1.65409 -3.8877,-5.27995 -5.8649,-8.05748 l -3.59491,-5.05005 4.18491,-2.73128 c 2.30169,-1.5022 4.42328,-2.75338 4.71463,-2.7804 0.4591,-0.0426 5.76006,6.94027 19.97561,26.31346 1.92206,2.61942 4.10735,5.58942 4.85618,6.6 l 1.36153,1.83741 h -6.98417 -6.98418 z M 175.92,186.48564 c -5.544,-7.52056 -12.11019,-16.41389 -14.59154,-19.76294 l -4.51153,-6.08919 1.29879,-1.11718 1.2988,-1.11718 6.04642,8.28042 c 3.32553,4.55424 9.93476,13.68043 14.68719,20.28043 4.75242,6.6 8.84971,12.27 9.10509,12.6 0.35339,0.45665 0.0203,0.59993 -1.39445,0.5997 L 186,200.1594 Z M 132.09111,165.5877 c -1.60402,-0.97795 -2.97111,-3.4165 -2.97111,-5.29974 0,-2.48277 1.46504,-4.15045 6.6264,-7.54293 2.82348,-1.85583 6.68607,-4.70187 8.58353,-6.32452 3.83536,-3.27988 5.58639,-4.01519 7.94086,-3.33463 4.04228,1.16844 5.88957,5.36055 3.98508,9.04344 -1.21142,2.34261 -8.577,8.37717 -14.76239,12.0947 -4.43138,2.66334 -6.72503,2.996 -9.40237,1.36368 z M 92.4,159.99569 C 72.648922,157.52041 54.917496,146.26695 44.067977,129.32121 33.488583,112.79736 31.133707,90.574752 37.932088,71.417741 c 10.43324,-29.3996 41.073766,-47.881388 71.814062,-43.316892 35.85513,5.323973 61.16318,38.153263 56.79345,73.671741 -4.14399,33.68355 -32.72573,58.85902 -66.3873,58.47549 -3.471766,-0.0396 -6.9603,-0.15313 -7.7523,-0.25239 z m 19.85758,-9.97387 c 23.1185,-6.0728 39.90875,-24.25861 43.98658,-47.64264 0.88357,-5.06675 0.89996,-14.51938 0.0336,-19.375718 -2.5105,-14.072515 -9.71731,-26.634873 -20.40108,-35.561608 -6.06967,-5.071461 -5.5369,-5.038732 -10.21721,-0.627666 -4.59647,4.332054 -11.16224,8.812196 -15.13949,10.330398 -3.64026,1.389576 -8.32758,1.376299 -12.822998,-0.03629 -2.721302,-0.85512 -3.207945,-1.152572 -2.616696,-1.59938 0.399476,-0.301891 2.049432,-1.574894 3.666562,-2.828894 2.793842,-2.16648 3.091422,-2.280355 5.976692,-2.287094 6.10445,-0.01426 12.7965,-2.469887 17.70603,-6.497156 3.85672,-3.163657 3.8536,-3.203763 -0.40034,-5.142421 C 114.92265,35.514628 108.64287,34.083271 100.08,33.750414 70.241899,32.590547 44.706095,53.45459 39.539733,83.214869 c -1.124105,6.475291 -0.703517,17.249121 0.912942,23.385971 2.427663,9.21659 6.051477,16.50147 11.670515,23.46102 7.976919,9.87994 20.186554,17.47162 32.35681,20.11874 2.508,0.54551 4.992,1.09284 5.52,1.2163 0.528,0.12346 4.632,0.15876 9.12,0.0785 7.04794,-0.12612 8.83836,-0.32421 13.13758,-1.45353 z M 92.88,145.73821 C 87.601757,144.34919 85.569826,143.60344 81.574637,141.58899 76.5648,139.06294 69.6,134.0267 69.6,132.93015 c 0,-0.22571 1.566,0.43415 3.48,1.46637 18.095093,9.75864 39.85173,10.10351 58.68,0.93013 l 4.8,-2.33861 -1.92,1.72967 c -4.73769,4.26806 -12.29899,8.30091 -19.72781,10.52192 -3.51947,1.05223 -5.45618,1.30882 -10.99219,1.45635 -5.893411,0.15705 -7.251379,0.0393 -11.04,-0.95777 z M 88.62469,129.0891 C 65.606808,125.8976 47.125053,109.10907 42.310873,87.018379 l -0.440568,-2.021616 1.84113,0.939274 c 1.012621,0.5166 2.930536,1.368677 4.262033,1.893504 l 2.420902,0.95423 1.391035,-2.751883 c 2.893161,-5.723563 8.896896,-12.535522 14.721384,-16.703194 4.232865,-3.0288 11.276553,-6.269011 16.773211,-7.715961 4.160645,-1.095255 5.759035,-1.263562 12,-1.263562 6.24096,0 7.83936,0.168307 12,1.263562 5.49666,1.44695 12.54035,4.687161 16.77321,7.715961 5.83226,4.173231 11.82821,10.979578 14.73073,16.721688 1.15785,2.290613 1.54373,2.696712 2.22821,2.344968 3.63819,-1.869624 7.43218,-3.471019 7.66704,-3.23616 0.56377,0.563765 -2.39856,9.815506 -4.45406,13.910645 -7.54958,15.040865 -20.89126,25.492205 -37.18513,29.129345 -4.88042,1.08942 -13.850218,1.52288 -18.41531,0.88992 z M 100.8,123.13854 c 10.66875,-1.62793 19.51658,-6.3063 27.34175,-14.45718 3.88603,-4.04777 7.65426,-9.305664 9.30001,-12.976502 l 0.88177,-1.966767 -1.54746,-3.069043 C 131.04113,79.295035 121.86457,71.590954 109.58236,67.83887 105.75188,66.668698 104.64721,66.548986 97.68,66.548986 c -6.967214,0 -8.071877,0.119712 -11.902363,1.289884 -13.710288,4.188351 -25.064007,14.326119 -29.644099,26.469312 -0.799047,2.1185 -1.688847,4.323572 -1.977336,4.900157 -0.430368,0.860141 -0.294178,1.441411 0.758664,3.237951 5.017977,8.56253 15.96706,16.68214 26.245814,19.46333 7.311442,1.97831 12.571166,2.30743 19.63932,1.22892 z M 83.26331,110.02658 C 81.279019,108.58917 77.28,104.3238 77.28,103.64477 c 0,-0.20904 0.486,-0.5277 1.08,-0.70814 1.520976,-0.462 4.082779,-2.46071 4.748621,-3.704848 2.579918,-4.82062 0.20567,-10.888195 -4.853693,-12.40402 l -1.914403,-0.573572 1.069737,-1.906992 c 0.588356,-1.048848 2.2332,-2.97106 3.65521,-4.271582 l 2.585472,-2.364586 0.859464,2.544485 c 2.421158,7.16796 11.492966,8.105501 15.194386,1.570291 C 100.29847,80.777611 100.78776,79.218 100.7921,78.36 c 0.009,-1.806293 0.0384,-1.817098 2.07174,-0.765634 2.58665,1.337588 4.19305,2.706884 5.90091,5.029944 1.87515,2.550629 1.9989,2.9958 0.71994,2.589874 -1.6662,-0.52883 -5.18198,0.723106 -6.92469,2.465818 -3.185768,3.185769 -3.301371,7.971067 -0.27581,11.416992 1.70997,1.947556 4.02693,2.817826 6.89325,2.589186 l 2.0832,-0.16618 -0.73009,1.44 c -1.16515,2.29807 -3.70929,5.20838 -5.84982,6.69178 -1.08797,0.75396 -2.04388,1.28474 -2.12426,1.17952 -0.0804,-0.10521 -0.52398,-1.21116 -0.98579,-2.45765 -1.920515,-5.18377 -7.804533,-7.13078 -12.331086,-4.08033 -1.767149,1.19088 -3.306975,3.53214 -3.751032,5.70334 l -0.292469,1.43002 z M 56.821608,62.618246 C 55.369387,60.401875 56.559302,58.014125 61.609747,53.010106 68.105803,46.573763 74.925,43.2 81.438365,43.2 c 2.918894,0 4.416475,0.495332 6.651379,2.199975 l 1.624142,1.238794 -1.969881,2.9671 -1.969887,2.967096 -3.887059,0.0109 c -7.649981,0.02141 -15.837533,3.337373 -20.811009,8.428478 -1.515826,1.551677 -2.913072,2.822683 -3.104986,2.824455 -0.191914,0.0019 -0.709171,-0.546567 -1.149456,-1.218528 z"
     id="path20"
     inkscape:connector-curvature="0" />
</svg>
