<?xml version="1.0" encoding="UTF-8" standalone="no"?>
<!-- Created with Inkscape (http://www.inkscape.org/) -->

<svg
   xmlns:dc="http://purl.org/dc/elements/1.1/"
   xmlns:cc="http://creativecommons.org/ns#"
   xmlns:rdf="http://www.w3.org/1999/02/22-rdf-syntax-ns#"
   xmlns:svg="http://www.w3.org/2000/svg"
   xmlns="http://www.w3.org/2000/svg"
   xmlns:sodipodi="http://sodipodi.sourceforge.net/DTD/sodipodi-0.dtd"
   xmlns:inkscape="http://www.inkscape.org/namespaces/inkscape"
   version="1.1"
   id="svg22"
   width="200.16"
   height="200.16"
   viewBox="0 0 200.16 200.16"
   sodipodi:docname="Embla.svg"
   inkscape:version="0.92.4 (5da689c313, 2019-01-14)">
  <metadata
     id="metadata28">
    <rdf:RDF>
      <cc:Work
         rdf:about="">
        <dc:format>image/svg+xml</dc:format>
        <dc:type
           rdf:resource="http://purl.org/dc/dcmitype/StillImage" />
        <dc:title></dc:title>
      </cc:Work>
    </rdf:RDF>
  </metadata>
  <defs
     id="defs26" />
  <sodipodi:namedview
     pagecolor="#ffffff"
     bordercolor="#666666"
     borderopacity="1"
     objecttolerance="10"
     gridtolerance="10"
     guidetolerance="10"
     inkscape:pageopacity="0"
     inkscape:pageshadow="2"
     inkscape:window-width="1920"
     inkscape:window-height="1018"
     id="namedview24"
     showgrid="false"
     inkscape:zoom="2.3581135"
     inkscape:cx="100.66666"
     inkscape:cy="61.129487"
     inkscape:window-x="-8"
     inkscape:window-y="-8"
     inkscape:window-maximized="1"
     inkscape:current-layer="svg22" />
  <path
     style="fill:#000000;stroke-width:0.47999999"
     d="M 0.59972257,100.08 V 1.987178e-7 H 100.67972 h 100.08 V 100.08 200.16 H 119.48296 38.206203 l -3.59629,-3.72 c -1.97796,-2.046 -4.47845,-4.908 -5.55664,-6.36 -2.53969,-3.42022 -7.01325,-11.83327 -6.62568,-12.46037 0.38278,-0.61936 10.96021,-3.94864 17.53213,-5.51831 8.24855,-1.97012 15.75128,-3.08181 24.81212,-3.67646 10.5509,-0.69245 12.44539,-0.62017 14.07014,0.53674 0.70469,0.5018 3.26868,1.91467 5.69774,3.13972 5.02653,2.53503 10.73044,6.61428 15.460937,11.05713 3.3957,3.18922 4.84962,3.87933 7.03906,3.34115 2.47349,-0.608 9.27817,-8.70625 13.17008,-15.67372 l 2.06291,-3.69311 2.38392,-0.31624 c 3.71453,-0.49275 6.70672,-2.03155 9.31688,-4.79141 2.20814,-2.33479 3.41638,-4.84574 3.42353,-7.11474 0.001,-0.46729 0.86668,-2.65133 1.92268,-4.85342 1.056,-2.20209 1.92,-4.24217 1.92,-4.53349 0,-0.85979 1.70787,-1.52328 3.92844,-1.52615 3.34861,-0.004 5.44152,-0.82633 7.27718,-2.85819 2.11042,-2.33598 2.39576,-3.83625 1.84674,-9.70997 -0.47546,-5.08684 -0.0653,-11.71015 1.0497,-16.94916 0.952,-4.47328 1.15114,-4.96072 2.9416,-7.2 2.45782,-3.07393 6.23152,-8.880365 7.80581,-12.010464 1.91119,-3.799944 3.94874,-8.841562 3.95753,-9.792293 0.004,-0.416481 1.22579,-1.945243 2.71544,-3.397243 6.92025,-6.745378 8.38989,-17.260973 3.63922,-26.039371 -1.75477,-3.242511 -6.2617,-7.357613 -9.83389,-8.97895 -2.96138,-1.3441 -3.01693,-1.404772 -3.60176,-3.933418 -0.3267,-1.412543 -1.47408,-4.356145 -2.54973,-6.541336 -2.22144,-4.512854 -6.82222,-9.496183 -11.73628,-12.712136 C 140.97136,18.83013 124.30636,12.274746 113.57912,10.067532 98.030093,6.8681933 74.407673,7.0067352 62.886603,10.364835 c -10.4682,3.051215 -18.81388,6.991982 -24.45845,11.549096 -5.76558,4.654806 -8.23448,5.687118 -13.58843,5.681686 -3.9839,-0.004 -4.63743,-0.148473 -8.4,-1.856426 -5.07763,-2.304901 -10.5425504,-4.206632 -11.0994104,-3.862474 -0.23132,0.142967 -0.42059,2.195823 -0.42059,4.561902 0,4.020631 0.0706,4.328594 1.08,4.709202 0.594,0.223982 3.84862,1.315259 7.2324804,2.425061 6.64319,2.17876 9.18134,3.432866 9.98434,4.933296 0.41711,0.779365 0.24857,1.325348 -0.90919,2.94527 -0.78167,1.093704 -1.96303,3.068552 -2.62525,4.388552 -1.75248,3.493176 -4.68238,11.533334 -4.68238,12.849235 0,0.622138 0.61458,1.719965 1.36574,2.439619 1.23712,1.185236 1.42641,1.235367 2.00989,0.532306 0.35429,-0.426883 1.43196,-2.779056 2.39483,-5.227042 5.39916,-13.726681 15.80741,-24.690705 29.40106,-30.970991 5.16963,-2.388376 15.28577,-5.548518 20.80209,-6.498284 10.30336,-1.77397 27.73846,-1.643327 39.517867,0.296113 13.43802,2.212524 24.97904,6.740637 36.38037,14.273816 6.55379,4.330268 8.42567,6.42336 9.23621,10.327691 0.71037,3.421878 -0.0395,6.64715 -2.38464,10.256207 -3.25696,5.012348 -13.2683,10.705287 -23.51204,13.370088 -19.49422,5.071224 -41.136687,-1.03594 -54.372447,-15.343051 -2.22017,-2.39988 -2.30098,-2.44008 -3.02678,-1.505707 -0.82927,1.067573 -0.64021,2.990736 0.59829,6.086064 1.55075,3.875707 12.22121,12.287088 20.0555,15.809477 1.98715,0.893453 3.61325,1.771752 3.61354,1.951776 9.6e-4,0.66095 -2.85862,2.333376 -6.44612,3.769881 -11.51485,4.61077 -23.12854,5.302724 -36.13639,2.153036 -4.05663,-0.982263 -5.51543,-1.619607 -9.28134,-4.055002 -3.13794,-2.029282 -4.63879,-2.747981 -5.04119,-2.414021 -0.31514,0.261547 -0.71555,1.605768 -0.8898,2.987165 -1.90315,15.087653 -11.00139,30.999054 -22.4535,39.267664 -6.8335104,4.9339 -7.8604804,6.65628 -10.0592704,16.87088 -1.21383,5.63889 -1.71919,18.97175 -0.96234,25.38918 0.55618,4.7159 2.43747,12.99461 3.80497,16.7439 2.2762404,6.2408 7.3822704,15.49643 11.7174204,21.24 l 2.80779,3.72 H 12.369573 0.59972257 Z M 102.35972,171.97755 c -4.099377,-3.4345 -9.026187,-6.65997 -14.848507,-9.72099 -8.11074,-4.26414 -15.18022,-10.60884 -20.28874,-18.20871 -2.49644,-3.71391 -3.76714,-4.84785 -5.43255,-4.84785 -0.83061,0 -1.65377,0.14357 -1.82925,0.31906 -0.17549,0.17547 0.51187,1.85954 1.52746,3.74237 2.40938,4.46683 4.87159,10.88883 4.87159,12.7062 0,1.82906 -1.05736,2.40887 -3.84293,2.10732 -2.81144,-0.30435 -17.37022,1.84129 -24.73371,3.64521 -5.29058,1.29609 -16.64865,4.88247 -18.52818,5.85039 -0.65584,0.33774 -0.90827,-0.0873 -1.53595,-2.5861 -2.63975,-10.50889 -2.20233,-23.34197 1.18516,-34.771 1.00221,-3.38132 1.13531,-3.55951 5.41349,-7.24749 10.08911,-8.69724 17.16426,-18.69836 21.43003,-30.292528 1.17741,-3.200136 1.46889,-3.617477 2.44426,-3.499637 1.84357,0.222735 1.96622,0.810072 0.88699,4.247592 -1.17914,3.755775 -1.72896,9.532953 -1.22628,12.885053 0.39331,2.62284 3.27376,6.18418 5.8917,7.28442 2.45739,1.03277 5.22483,0.84354 6.1082,-0.41766 1.04795,-1.49617 0.99443,-1.60789 -1.30326,-2.72018 -2.23717,-1.083 -3.70952,-3.08974 -3.70952,-5.05591 0,-1.85127 1.80221,-8.296801 3.14608,-11.251835 l 1.17092,-2.574729 2.0415,0.274737 c 5.53091,0.744331 8.72374,0.821055 13.5615,0.325882 12.87818,-1.318152 20.79383,-4.109736 32.242357,-11.370792 l 4.88235,-3.096562 2.85194,0.322661 2.85193,0.322661 1.09504,2.641987 c 1.49548,3.608107 5.97784,8.315918 9.75392,10.24452 3.43016,1.751923 2.42926,1.625026 -4.87689,-0.618322 -5.23802,-1.608331 -6.408,-1.534204 -6.70263,0.424685 -0.0822,0.546677 1.33324,3.152261 3.36323,6.190978 1.92786,2.885859 4.24371,6.975019 5.14631,9.087019 0.90261,2.112 1.96064,4.218 2.35117,4.68 1.43187,1.6939 4.63648,0.5591 4.32686,-1.53219 -0.11259,-0.76042 0.35661,-1.67044 1.46582,-2.84301 0.89727,-0.94852 2.30821,-3.13313 3.13541,-4.85469 0.8272,-1.72156 2.09107,-3.714294 2.80859,-4.428294 2.29716,-2.285875 1.33482,-3.682234 -2.62385,-3.807221 -1.34098,-0.04234 -0.71729,-0.198177 1.76844,-0.441878 4.24917,-0.416587 7.59557,-1.65493 10.33476,-3.824405 l 1.80663,-1.430885 3.61638,0.562224 3.61637,0.562229 -1.23272,2.439058 c -1.94312,3.844656 -4.19969,7.179888 -6.80206,10.053522 -3.62115,3.99859 -3.98236,4.75119 -4.94389,10.3008 -1.26674,7.3111 -1.56787,13.11441 -0.92887,17.901 0.62963,4.71631 0.46527,5.4661 -1.41084,6.43628 -1.78893,0.92509 -3.84045,0.4939 -7.37011,-1.54905 -2.39807,-1.38798 -2.93544,-1.53941 -3.49109,-0.98376 -0.55564,0.55564 -0.54114,0.98435 0.0942,2.78514 0.41303,1.17062 0.76855,3.00524 0.79006,4.07692 0.0398,1.98166 -0.4681,5.01821 -0.83931,5.01821 -0.11231,0 -2.84915,-0.73205 -6.08186,-1.62678 -8.75168,-2.42225 -8.281,-2.37074 -9.79146,-1.0715 -1.20547,1.0369 -1.27642,1.26679 -0.74855,2.42534 0.43685,0.95878 1.83791,1.86578 5.58483,3.61542 3.0969,1.44612 5.30223,2.79424 5.79085,3.53997 0.73261,1.11812 0.73213,1.31466 -0.007,2.74352 -0.79297,1.53345 -0.80591,1.53782 -3.51124,1.18611 -5.97743,-0.77708 -6.86475,-0.23582 -9.72633,5.93306 -1.68459,3.63156 -6.67985,11.73577 -7.52875,12.2145 -0.18714,0.10553 -1.74425,-0.9844 -3.46025,-2.42209 z m 25.51365,-71.9315 c -1.8655,-3.560108 -1.88399,-3.6426 -0.75273,-3.358671 0.63786,0.160095 2.13749,0.425093 3.33252,0.588888 1.19502,0.163795 2.26336,0.444399 2.37409,0.623559 0.26273,0.425102 -1.90061,5.090914 -2.54514,5.489254 -0.28076,0.17352 -1.32678,-1.27821 -2.40874,-3.34303 z m 4.63635,-7.253943 c 0.3465,-0.138657 0.7605,-0.121608 0.92,0.03787 0.1595,0.159499 -0.124,0.272947 -0.63,0.252106 -0.55917,-0.02304 -0.67291,-0.136771 -0.29,-0.289997 z m 0.31014,-10.654344 c -2.06728,-0.939033 -4.72667,-3.687624 -4.27502,-4.418405 0.14935,-0.241646 0.74479,-0.439905 1.32321,-0.440568 2.00231,-0.0024 10.1898,-2.451062 14.39057,-4.304006 4.62733,-2.041099 12.75797,-7.23996 15.70059,-10.0392 1.2576,-1.196333 2.07031,-2.521886 2.47587,-4.03825 0.33206,-1.241534 0.75838,-2.257334 0.94737,-2.257334 0.94777,0 3.56463,2.880317 4.56117,5.020382 3.40935,7.321522 -1.15407,15.793431 -9.09332,16.881629 -1.38364,0.189648 -3.19813,-0.03446 -5.45915,-0.674333 -1.86267,-0.527121 -3.96064,-0.848678 -4.66216,-0.714576 -0.70152,0.134103 -2.3309,1.192728 -3.62085,2.3525 -1.28994,1.159771 -3.11311,2.429462 -4.05147,2.821536 -2.30557,0.963331 -5.88006,0.88115 -8.23681,-0.189375 z"
     id="path32"
     inkscape:connector-curvature="0" />
</svg>
