<?xml version="1.0" encoding="UTF-8" standalone="no"?>
<!-- Created with Inkscape (http://www.inkscape.org/) -->

<svg
   xmlns:dc="http://purl.org/dc/elements/1.1/"
   xmlns:cc="http://creativecommons.org/ns#"
   xmlns:rdf="http://www.w3.org/1999/02/22-rdf-syntax-ns#"
   xmlns:svg="http://www.w3.org/2000/svg"
   xmlns="http://www.w3.org/2000/svg"
   xmlns:xlink="http://www.w3.org/1999/xlink"
   xmlns:sodipodi="http://sodipodi.sourceforge.net/DTD/sodipodi-0.dtd"
   xmlns:inkscape="http://www.inkscape.org/namespaces/inkscape"
   version="1.1"
   id="svg3740"
   width="204"
   height="200"
   viewBox="0 0 204 200"
   sodipodi:docname="eparch.svg"
   inkscape:version="0.92.4 (5da689c313, 2019-01-14)">
  <metadata
     id="metadata3746">
    <rdf:RDF>
      <cc:Work
         rdf:about="">
        <dc:format>image/svg+xml</dc:format>
        <dc:type
           rdf:resource="http://purl.org/dc/dcmitype/StillImage" />
        <dc:title></dc:title>
      </cc:Work>
    </rdf:RDF>
  </metadata>
  <defs
     id="defs3744" />
  <sodipodi:namedview
     pagecolor="#ffffff"
     bordercolor="#666666"
     borderopacity="1"
     objecttolerance="10"
     gridtolerance="10"
     guidetolerance="10"
     inkscape:pageopacity="0"
     inkscape:pageshadow="2"
     inkscape:window-width="1920"
     inkscape:window-height="1018"
     id="namedview3742"
     showgrid="false"
     inkscape:zoom="0.834386"
     inkscape:cx="-108.7866"
     inkscape:cy="270.91249"
     inkscape:window-x="-8"
     inkscape:window-y="-8"
     inkscape:window-maximized="1"
     inkscape:current-layer="svg3740" />
  <image
     sodipodi:absref="D:\eeee.png"
     xlink:href="eeee.png"
     y="0"
     x="0"
     id="image3748"
     style="image-rendering:optimizeQuality"
     preserveAspectRatio="none"
     height="200"
     width="204" />
  <path
     style="fill:#000000"
     d="m 68.247998,182.76297 c -0.560132,-0.69463 -2.870077,-4.96548 -5.13321,-9.49077 L 59,165.04439 v -17.44961 -17.44962 l -2.75,-2.1625 C 51.529724,124.27081 44.230439,114.96708 40.562922,107.98779 22.695046,73.985156 43.006501,38.958376 86,29.632273 c 2.360397,-0.512015 2.480606,-0.856513 2.152698,-6.16926 -0.29592,-4.794461 -2.2e-5,-6.003774 2,-8.173867 6.629197,-7.1929063 19.960352,-7.0172872 25.784462,0.339674 1.9105,2.413331 2.18947,3.693998 1.74945,8.031095 l -0.52351,5.159914 7.06335,1.595106 c 11.56098,2.610802 24.35295,9.280305 32.45048,16.919105 22.44693,21.175303 21.67293,51.790417 -1.92554,76.16313 l -7.74861,8.00283 -0.0378,17 -0.0378,17 -4.71355,9 -4.71356,9 -34.11679,0.26297 c -26.532693,0.20451 -34.343184,-0.0178 -35.135212,-1 z M 95,151.16255 v -5.83745 l -8.354281,-2.06242 c -4.594855,-1.13434 -11.185298,-3.46704 -14.645429,-5.18379 -3.460131,-1.71675 -6.473819,-2.93869 -6.697083,-2.71543 -0.223265,0.22326 1.969769,5.18282 4.873408,11.02124 L 75.455959,157 H 85.227979 95 Z m 40.83182,-4.79482 c 5.82669,-11.71586 6.03623,-11.37839 -4.33182,-6.97686 -3.3,1.40095 -9.2625,3.28129 -13.25,4.17853 L 111,145.20076 V 151.10038 157 h 9.77202 9.77202 z m -19.29192,-9.88935 c 24.67872,-6.3005 42.28921,-28.72265 38.53009,-49.057568 C 152.32184,72.554672 139.40635,60.414563 121,55.39621 c -8.87151,-2.418752 -27.128489,-2.418752 -36,0 C 71.139916,59.175058 58.993336,68.223847 53.986785,78.5 51.935617,82.710106 51.546769,85.000799 51.52539,93 c -0.02318,8.67449 0.257478,10.09728 3.229882,16.37354 5.97423,12.61465 19.229081,23.08229 34.244728,27.0438 7.282292,1.92125 20.14191,1.94976 27.5399,0.061 z M 95.779877,115.25 95.5,102.5 84.75,102.21617 74,101.93234 V 97 92.067663 L 84.75,91.783832 95.5,91.5 95.787526,82.25 96.075052,73 H 103.03753 110 v 9.5 9.5 h 11 11 v 5 5 h -11 -11 v 13 13 h -6.97012 -6.970126 z M 106.61349,42.093977 c 5.46072,-3.329842 8.95255,-13.299295 6.35687,-18.149368 -2.99227,-5.591098 -14.377945,-6.49722 -18.687364,-1.487223 -2.872708,3.339722 -2.919504,7.596316 -0.146487,13.324604 1.75222,3.619603 6.708251,8.210534 8.863491,8.210534 0.275,0 1.90107,-0.854346 3.61349,-1.898547 z M 17.396979,149.75 c 1.269043,-3.4375 3.572125,-9.77306 5.117959,-14.07903 l 2.810607,-7.82904 2.409706,3.07904 c 2.917642,3.72805 3.638896,3.78344 7.454935,0.57245 l 2.978897,-2.50657 3.812032,4.61308 3.812031,4.61309 -3.146573,2.81903 -3.146573,2.81903 2.927098,3.06403 c 1.609903,1.68522 2.734903,3.24628 2.5,3.46903 C 44.57014,150.72263 16.965429,156 15.551823,156 c -0.254207,0 0.576113,-2.8125 1.845156,-6.25 z M 174.5,153.27735 c -7.15,-1.35484 -13.19219,-2.65118 -13.4271,-2.88077 -0.2349,-0.2296 0.86179,-1.76275 2.43709,-3.40701 L 166.37418,144 163.68709,141.19528 C 162.20919,139.65269 161,138.12026 161,137.78989 c 0,-0.33036 1.53986,-2.44376 3.42191,-4.69642 l 3.42191,-4.09576 2.97245,2.50114 c 3.80874,3.20485 4.53175,3.14901 7.44628,-0.57508 l 2.40751,-3.07622 1.62212,4.32622 c 7.55257,20.14282 8.62752,23.82669 6.91464,23.69657 -0.93875,-0.0713 -7.55682,-1.23816 -14.70682,-2.59299 z"
     id="path3752"
     inkscape:connector-curvature="0" />
</svg>
