<?xml version="1.0" encoding="UTF-8" standalone="no"?>
<!-- Created with Inkscape (http://www.inkscape.org/) -->

<svg
   xmlns:dc="http://purl.org/dc/elements/1.1/"
   xmlns:cc="http://creativecommons.org/ns#"
   xmlns:rdf="http://www.w3.org/1999/02/22-rdf-syntax-ns#"
   xmlns:svg="http://www.w3.org/2000/svg"
   xmlns="http://www.w3.org/2000/svg"
   xmlns:xlink="http://www.w3.org/1999/xlink"
   xmlns:sodipodi="http://sodipodi.sourceforge.net/DTD/sodipodi-0.dtd"
   xmlns:inkscape="http://www.inkscape.org/namespaces/inkscape"
   version="1.1"
   id="svg10"
   width="200.16"
   height="200.16"
   viewBox="0 0 200.16 200.16"
   sodipodi:docname="Maksur.svg"
   inkscape:version="0.92.4 (5da689c313, 2019-01-14)">
  <metadata
     id="metadata16">
    <rdf:RDF>
      <cc:Work
         rdf:about="">
        <dc:format>image/svg+xml</dc:format>
        <dc:type
           rdf:resource="http://purl.org/dc/dcmitype/StillImage" />
        <dc:title></dc:title>
      </cc:Work>
    </rdf:RDF>
  </metadata>
  <defs
     id="defs14" />
  <sodipodi:namedview
     pagecolor="#ffffff"
     bordercolor="#666666"
     borderopacity="1"
     objecttolerance="10"
     gridtolerance="10"
     guidetolerance="10"
     inkscape:pageopacity="0"
     inkscape:pageshadow="2"
     inkscape:window-width="1920"
     inkscape:window-height="1018"
     id="namedview12"
     showgrid="false"
     inkscape:zoom="2.960409"
     inkscape:cx="87.4235"
     inkscape:cy="90.995973"
     inkscape:window-x="-8"
     inkscape:window-y="-8"
     inkscape:window-maximized="1"
     inkscape:current-layer="svg10" />
  <image
     sodipodi:absref="D:\Maksur.png"
     xlink:href="Maksur.png"
     y="0"
     x="0"
     id="image18"
     style="image-rendering:optimizeQuality"
     preserveAspectRatio="none"
     height="200.16"
     width="200.16" />
  <path
     style="fill:#000000;stroke-width:0.47999999"
     d="M 0,100.08 V 0 H 100.08 200.16 V 100.08 200.16 H 100.08 0 Z m 148.08826,77.68668 c 3.42437,-1.16145 7.92896,-5.74101 9.13464,-9.28668 1.93768,-5.69836 0.76948,-11.69787 -3.10873,-15.96554 -1.25675,-1.38295 -2.40645,-3.05446 -2.55489,-3.71446 -0.14843,-0.66 -0.1038,-3.684 0.0992,-6.72 0.20298,-3.036 0.22741,-5.68066 0.0543,-5.87701 -0.17313,-0.19636 -1.62498,-0.49396 -3.22633,-0.66133 -2.90402,-0.30354 -2.91245,-0.30074 -3.2545,1.07701 -0.18861,0.75973 -1.13243,3.38763 -2.09738,5.83978 -1.46413,3.72069 -1.95468,4.50217 -2.9645,4.7226 -4.59211,1.00243 -6.06486,1.82508 -9.56502,5.34281 l -3.55497,3.57283 -5.56503,-0.23086 c -3.06076,-0.12697 -6.03661,-0.38615 -6.61299,-0.57595 -0.94985,-0.31278 -1.13666,-0.0597 -1.99502,2.70251 -0.52088,1.67619 -0.80529,3.17857 -0.63203,3.33862 0.17326,0.16006 2.15102,0.64455 4.39502,1.07665 2.244,0.4321 5.268,1.38371 6.72,2.11468 2.32487,1.1704 2.82546,1.6976 4.19368,4.41664 4.25866,8.46315 11.9106,11.75268 20.53458,8.8277 z M 138.48,173.57884 c -2.85999,-1.34871 -4.16361,-2.67592 -5.47967,-5.57884 -1.77793,-3.9217 -0.91237,-9.22029 2.02946,-12.42353 1.6616,-1.80923 5.53077,-3.40709 8.25021,-3.40709 2.71944,0 6.58861,1.59786 8.25021,3.40709 1.70264,1.85394 3.00821,5.25953 3.01456,7.86353 0.007,2.71948 -1.5863,6.58338 -3.40124,8.25021 -3.32023,3.04928 -8.54876,3.82906 -12.66353,1.88863 z m -54.648091,-6.24841 c 3.360662,-0.8948 6.894158,-2.88877 9.24648,-5.2178 l 1.956907,-1.93754 5.067204,0.28695 c 3.73848,0.21171 5.10272,0.13631 5.20265,-0.28754 0.0745,-0.31598 0.67714,-2.25201 1.33919,-4.3023 l 1.20374,-3.72779 -1.48404,-0.92466 c -0.81622,-0.50856 -2.65482,-2.11508 -4.08576,-3.57005 -2.14318,-2.17914 -2.745494,-3.17805 -3.417408,-5.66755 -0.448622,-1.66218 -1.097477,-3.69839 -1.441901,-4.5249 -0.585134,-1.40416 -0.526257,-1.63869 0.897403,-3.57457 0.837994,-1.13949 1.523626,-2.33655 1.523626,-2.66013 0,-0.32357 -1.199352,-1.61296 -2.665229,-2.86529 l -2.665229,-2.27698 -3.025795,1.0682 -3.0258,1.06819 -2.933832,-0.98834 c -3.981216,-1.34117 -9.640737,-1.33655 -13.641312,0.0111 l -2.966909,0.99948 -2.758324,-1.31836 -2.758325,-1.31836 -1.959015,1.3576 c -2.668128,1.84901 -4.932,4.51144 -4.644499,5.46216 0.129394,0.4279 0.725386,1.9007 1.324421,3.27289 1.074341,2.46094 1.07821,2.54023 0.284501,5.82868 -0.941439,3.90051 -1.006661,6.26991 -0.269002,9.7728 1.628045,7.73105 8.072146,14.39689 15.639619,16.17778 2.779296,0.65406 7.30322,0.58941 10.056639,-0.14372 z M 73.92,162.29933 c -4.408982,-1.44959 -7.840526,-4.32955 -9.955622,-8.35538 -1.151127,-2.19101 -1.315536,-3.04385 -1.315536,-6.82395 0,-3.7801 0.164409,-4.63294 1.315536,-6.82395 1.670779,-3.18012 4.031548,-5.54089 7.211668,-7.21167 2.191013,-1.15113 3.043858,-1.31554 6.823954,-1.31554 3.780096,0 4.632941,0.16441 6.823954,1.31554 3.18012,1.67078 5.540889,4.03155 7.211668,7.21167 1.151127,2.19101 1.315536,3.04385 1.315536,6.82395 0,3.7801 -0.164409,4.63294 -1.315536,6.82395 -2.837169,5.4002 -7.416748,8.35849 -13.315622,8.60157 -1.98,0.0816 -4.14,-0.0292 -4.8,-0.24619 z m 80.53697,-38.36556 c 2.14743,-8.13635 2.15245,-8.14636 4.28133,-8.53285 5.76571,-1.04672 9.43779,-5.42038 9.43779,-11.24092 0,-4.370357 -2.1017,-8.080742 -5.61697,-9.91632 -0.90387,-0.471974 -1.83791,-1.730006 -2.78139,-3.746174 l -1.42051,-3.035564 -2.32542,0.743636 c -2.19991,0.703507 -2.33953,0.849715 -2.58707,2.709028 -0.16685,1.253256 -0.63329,2.226279 -1.2873,2.685394 -4.86379,3.414389 -6.4097,5.96039 -6.41198,10.56 -0.002,3.41055 0.80081,5.48805 3.05934,7.92 1.29194,1.39116 1.32313,1.54583 0.91931,4.56 -0.2299,1.716 -0.77617,5.01771 -1.21393,7.33713 -0.43775,2.31941 -0.68945,4.32359 -0.55933,4.45371 0.19171,0.19171 1.72473,0.5536 4.7299,1.11657 0.15441,0.0289 0.95371,-2.49721 1.77623,-5.61364 z m -0.36555,-12.18244 c -3.78318,-2.57153 -4.91807,-6.76278 -2.83483,-10.46939 2.04869,-3.645159 7.21359,-4.99286 10.541,-2.750516 2.78001,1.873446 3.91994,4.029676 3.68402,6.968486 -0.21479,2.67561 -1.17176,4.38705 -3.37136,6.02929 -0.75557,0.56411 -2.29979,1.03115 -3.81034,1.15241 -2.08982,0.16777 -2.83559,0.003 -4.20849,-0.93028 z m -28.71369,15.94514 c 3.48838,-1.63973 5.95048,-4.06907 7.67579,-7.5737 1.36575,-2.77421 1.57155,-3.67597 1.55648,-6.81985 -0.0177,-3.69093 -1.15101,-7.26555 -2.92495,-9.22574 -0.61839,-0.68331 -0.71685,-1.70493 -0.53369,-5.537538 0.12353,-2.5848 0.38811,-5.077642 0.58797,-5.539642 0.33062,-0.764261 -0.0214,-0.84 -3.90437,-0.84 h -4.26775 l -2.58521,2.617728 c -2.08859,2.114856 -3.04508,2.716349 -4.97908,3.131117 -7.00489,1.50228 -11.98773,7.056935 -12.64184,14.092575 -0.15584,1.67628 -0.0374,3.79074 0.27315,4.87858 0.54037,1.89252 0.52096,1.94463 -1.35627,3.64149 l -1.90448,1.72148 2.73326,2.66775 2.73326,2.66775 1.84338,-0.65913 c 1.6196,-0.57911 2.0275,-0.56315 3.36,0.13144 4.46169,2.32574 10.2094,2.58465 14.33435,0.64569 z m -8.18711,-4.85756 c -2.39182,-0.73112 -6.12573,-4.69126 -6.80973,-7.22231 -1.32819,-4.91482 0.43686,-9.60909 4.75386,-12.64319 1.87524,-1.31797 2.41807,-1.45341 5.82525,-1.45341 3.40718,0 3.95001,0.13544 5.82525,1.45341 1.13737,0.79937 2.72197,2.38397 3.52134,3.52134 1.31797,1.87524 1.45341,2.41807 1.45341,5.82525 0,3.40718 -0.13544,3.95001 -1.45341,5.82525 -2.32846,3.313 -4.84388,4.80477 -8.4493,5.01086 -1.68151,0.0961 -3.78151,-0.0466 -4.66667,-0.3172 z M 54.797021,119.3056 c -1.331943,-1.24588 -3.342197,-3.45835 -4.467235,-4.91661 -1.884173,-2.44224 -2.048002,-2.88468 -2.076984,-5.60911 -0.02333,-2.19277 -0.36634,-3.64221 -1.326272,-5.60424 -1.25898,-2.57326 -1.275783,-2.71862 -0.607233,-5.252976 0.378167,-1.433563 0.516022,-2.722622 0.306344,-2.864573 -0.209677,-0.14195 -1.385724,-1.090421 -2.613434,-2.107718 L 41.780004,91.10075 39.321838,93.790373 C 37.969846,95.26967 36.49255,96.48 36.038956,96.48 c -2.520618,0 -6.148634,1.656168 -8.265712,3.77324 C 25.593487,102.433 24,106.00861 24,108.72 c 0,2.71284 1.593596,6.28715 3.777664,8.47299 3.116997,3.11953 6.583748,4.13961 11.144185,3.27911 l 3.222735,-0.60808 3.047708,1.70824 c 1.67624,0.93953 3.911708,2.46785 4.967708,3.39626 l 1.92,1.68802 2.569368,-2.54286 2.569368,-2.54285 z m -22.344273,-3.8008 c -5.432552,-3.28845 -5.441034,-10.85243 -0.01573,-14.03187 3.895535,-2.282932 8.896469,-0.90538 11.128147,3.06536 3.983951,7.08848 -4.191055,15.15615 -11.112412,10.96651 z M 50.698363,86.28 c 1.322213,-2.614272 4.087363,-6.761846 6.144922,-9.217046 l 1.187539,-1.417047 2.54459,0.676848 c 5.815056,1.546776 13.596572,0.343714 18.617808,-2.878406 2.933002,-1.882099 6.588106,-5.809608 8.154418,-8.762136 1.257317,-2.370063 1.410446,-2.440176 6.61236,-3.027499 1.65,-0.186293 3,-0.515847 3,-0.732346 0,-1.19952 -2.065512,-10.839331 -2.411981,-11.256806 -0.226176,-0.272525 -1.521528,-0.894754 -2.87856,-1.382736 C 90.312427,47.794842 89.090333,47.045578 88.953696,46.617792 87.87635,43.244814 85.614984,39.699275 82.843805,37.038251 75.430622,29.919748 65.525947,28.388192 56.24879,32.925873 51.767213,35.11792 48.166618,38.680224 45.945885,43.119209 42.376639,50.25371 42.439608,57.311856 46.138298,64.686682 l 1.989406,3.966681 -0.237852,4.673319 c -0.162927,3.201177 -0.614956,5.784331 -1.434967,8.200238 l -1.197114,3.526915 1.971115,1.86108 c 1.084112,1.023595 2.021476,1.86648 2.083026,1.873085 0.06155,0.0066 0.685454,-1.122 1.386451,-2.508 z M 60.24,70.878149 C 56.775682,69.723394 54.491141,68.28805 52.172966,65.809733 48.711614,62.109269 47.80272,59.715835 47.779411,54.24 c -0.01725,-4.051882 0.131334,-4.866979 1.333411,-7.314926 1.723589,-3.509967 4.862285,-6.648665 8.372252,-8.372253 2.447947,-1.202076 3.263044,-1.350658 7.314926,-1.33341 5.534088,0.02356 7.915555,0.947125 11.719963,4.545178 3.770597,3.566072 5.320258,7.203897 5.319283,12.487032 -4.8e-4,3.644923 -0.170976,4.437398 -1.559966,7.258838 -2.89835,5.887387 -8.191008,9.431467 -14.644061,9.805987 -2.149368,0.124743 -4.207728,-0.04248 -5.395219,-0.438297 z m 78.4051,10.16676 C 142.56237,76.893091 142.69894,76.8 144.87231,76.8 c 2.08272,0 2.38853,0.174715 4.8749,2.785162 l 2.65279,2.785166 2.28,-0.709435 2.28,-0.70944 v -4.210306 -4.210305 l 2.3463,-3.099898 c 6.09145,-8.04792 5.51809,-18.320837 -1.40916,-25.248087 -9.33233,-9.332328 -24.94173,-6.562237 -30.67131,5.443023 l -1.46624,3.072235 -4.22114,0.334095 -4.22113,0.334089 0.54144,4.036954 c 0.2978,2.220321 0.6314,4.114109 0.74134,4.208405 0.10995,0.0943 1.8047,0.472257 3.76613,0.839899 l 3.56623,0.668443 1.31969,2.564549 c 0.72583,1.410499 1.65903,2.93951 2.07377,3.397795 1.07568,1.188614 0.94503,7.086077 -0.25073,11.317656 -1.74474,6.174312 -2.00368,5.514504 2.03337,5.181293 L 134.64,85.289818 Z m 2.7149,-8.213477 c -4.53116,-1.86803 -7.2955,-4.64161 -8.9235,-8.953344 -2.67129,-7.074859 0.84805,-15.872362 7.53237,-18.82916 5.26421,-2.328606 10.4345,-1.46368 14.73266,2.464592 3.6134,3.302448 4.88718,6.261403 4.85861,11.28648 -0.0336,5.90135 -2.54688,10.272197 -7.43723,12.933859 -2.92137,1.59001 -8.25028,2.133437 -10.76291,1.097573 z M 111.12028,57.121958 c -0.306,-2.110924 -0.64724,-3.916968 -0.75832,-4.013433 -0.11108,-0.09647 -1.98396,-0.491919 -4.16196,-0.878784 -2.71241,-0.481786 -3.95979,-0.540562 -3.95934,-0.186562 3.6e-4,0.284251 0.32406,2.352821 0.71934,4.596821 0.39528,2.244 0.71898,4.134 0.71934,4.2 3.6e-4,0.066 1.79991,0.12 3.99899,0.12 h 3.99832 z"
     id="path20"
     inkscape:connector-curvature="0" />
</svg>
