<?xml version="1.0" encoding="UTF-8" standalone="no"?>
<!-- Created with Inkscape (http://www.inkscape.org/) -->

<svg
   xmlns:dc="http://purl.org/dc/elements/1.1/"
   xmlns:cc="http://creativecommons.org/ns#"
   xmlns:rdf="http://www.w3.org/1999/02/22-rdf-syntax-ns#"
   xmlns:svg="http://www.w3.org/2000/svg"
   xmlns="http://www.w3.org/2000/svg"
   xmlns:sodipodi="http://sodipodi.sourceforge.net/DTD/sodipodi-0.dtd"
   xmlns:inkscape="http://www.inkscape.org/namespaces/inkscape"
   version="1.1"
   id="svg20"
   width="200.16"
   height="200.16"
   viewBox="0 0 200.16 200.16"
   sodipodi:docname="NA.svg"
   inkscape:version="0.92.4 (5da689c313, 2019-01-14)">
  <metadata
     id="metadata26">
    <rdf:RDF>
      <cc:Work
         rdf:about="">
        <dc:format>image/svg+xml</dc:format>
        <dc:type
           rdf:resource="http://purl.org/dc/dcmitype/StillImage" />
        <dc:title></dc:title>
      </cc:Work>
    </rdf:RDF>
  </metadata>
  <defs
     id="defs24" />
  <sodipodi:namedview
     pagecolor="#ffffff"
     bordercolor="#666666"
     borderopacity="1"
     objecttolerance="10"
     gridtolerance="10"
     guidetolerance="10"
     inkscape:pageopacity="0"
     inkscape:pageshadow="2"
     inkscape:window-width="1920"
     inkscape:window-height="1018"
     id="namedview22"
     showgrid="false"
     inkscape:zoom="3.334876"
     inkscape:cx="43.039472"
     inkscape:cy="102.69842"
     inkscape:window-x="-8"
     inkscape:window-y="-8"
     inkscape:window-maximized="1"
     inkscape:current-layer="svg20" />
  <path
     style="fill:#000000;stroke-width:0.54033267"
     d="m 82.941694,188.66804 c -7.539053,-1.41996 -12.540149,-3.07819 -17.617357,-5.84144 -11.494951,-6.2561 -19.495924,-15.02747 -23.350792,-25.59919 -3.360691,-9.21646 -3.450486,-10.34657 -3.450486,-43.42226 0,-28.722726 0.05362,-30.306061 1.086778,-32.114428 1.325529,-2.320003 3.775219,-4.470303 5.926291,-5.201993 3.50544,-1.19238 8.175425,-0.212693 9.484666,1.989731 0.376739,0.633752 0.586353,9.072626 0.586353,23.60635 v 22.62 l 2.704987,-0.15626 2.704976,-0.15626 -0.139558,-42.190969 c -0.149234,-45.115293 -0.202191,-44.152742 2.581526,-46.924082 4.838178,-4.816675 15.971814,-3.658059 18.321841,1.906653 0.388968,0.921051 0.591309,14.082041 0.591309,38.460934 v 37.060764 l 3.274453,2.29296 c 1.800949,1.26112 3.631368,2.48268 4.067589,2.71455 0.675465,0.35904 0.751417,-4.00298 0.511907,-29.398809 -0.154682,-16.401227 -0.199414,-29.746735 -0.09944,-29.656692 0.09997,0.09004 4.395549,11.110488 9.545631,24.489875 13.242102,34.401666 15.453792,39.864866 16.600442,41.005556 0.81984,0.81559 1.75881,1.00829 4.91315,1.00829 h 3.8996 l -0.01,-43.589695 c -0.0107,-46.40834 -0.0862,-45.05708 2.65322,-47.223353 3.2771,-2.59145 9.05035,-3.44688 12.45759,-1.845857 1.8888,0.887525 4.35293,3.120647 5.32706,4.827656 0.45437,0.796195 0.63905,11.417378 0.63905,36.750334 V 109.7109 l -1.77285,1.1365 c -1.96825,1.26177 -3.35238,3.75427 -3.35238,6.0369 0,0.82334 0.75805,2.96481 1.68455,4.75882 1.87672,3.63396 4.08671,10.28081 5.58365,16.79363 0.78824,3.42951 1.28455,4.50183 2.44396,5.28041 1.80899,1.21478 4.26924,0.57227 5.0701,-1.32411 0.8176,-1.93605 -0.86975,-10.6251 -3.19695,-16.4627 -1.12411,-2.81978 -2.16538,-6.22349 -2.31391,-7.56381 -0.24905,-2.24736 -0.1152,-2.57638 1.72123,-4.22966 1.74065,-1.56709 2.34715,-1.79272 4.81878,-1.79272 3.80162,0 5.17355,1.07318 8.01779,6.27176 9.90883,18.11103 5.875,38.81164 -10.42216,53.48376 -5.90825,5.31912 -17.3079,11.86701 -18.53389,10.64575 -0.23167,-0.23078 -4.47044,-7.68691 -9.41949,-16.5692 -4.94906,-8.8823 -9.37822,-16.55337 -9.84258,-17.04683 -0.73855,-0.78486 -1.97589,-0.8972 -9.88163,-0.8972 h -9.037339 l -0.576986,1.36626 c -0.378662,0.89664 -0.440665,8.03371 -0.180391,20.7638 l 0.396413,19.39754 -4.50365,-0.0364 c -2.477013,-0.02 -6.938132,-0.49494 -9.913614,-1.05536 z m 29.834586,-48.91206 c 0.50424,-0.45395 0.91679,-1.22703 0.91679,-1.71795 0,-1.26123 -2.75699,-8.35062 -6.41789,-16.50306 -1.71868,-3.82735 -3.82123,-8.78759 -4.67232,-11.02276 -1.92556,-5.05705 -3.475796,-7.39641 -4.901385,-7.39641 -1.055322,0 -1.092502,0.58566 -1.092502,17.2087 0,11.19599 0.211974,17.56529 0.6067,18.22928 0.896731,1.50848 2.473305,1.85427 8.869347,1.94535 4.63505,0.066 5.95537,-0.0806 6.69126,-0.74315 z m 3.78403,-37.79372 c -0.36356,-0.91643 -1.78043,-4.550093 -3.14863,-8.074812 -1.36819,-3.524718 -4.18153,-10.676693 -6.25187,-15.893277 -2.07032,-5.216584 -6.42868,-16.349056 -9.685198,-24.738825 L 91.55365,38.001223 91.423588,27.501582 91.293526,17.00194 92.963399,14.062346 c 4.919642,-8.6603783 18.766441,-8.2924949 23.005721,0.611218 0.91623,1.924309 1.03642,5.761584 1.42616,45.528174 0.23408,23.884716 0.2907,43.426752 0.12582,43.426752 -0.16489,0 -0.59725,-0.74981 -0.96079,-1.66623 z"
     id="path30"
     inkscape:connector-curvature="0" />
</svg>
