<?xml version="1.0" encoding="UTF-8" standalone="no"?>
<!-- Created with Inkscape (http://www.inkscape.org/) -->

<svg
   xmlns:dc="http://purl.org/dc/elements/1.1/"
   xmlns:cc="http://creativecommons.org/ns#"
   xmlns:rdf="http://www.w3.org/1999/02/22-rdf-syntax-ns#"
   xmlns:svg="http://www.w3.org/2000/svg"
   xmlns="http://www.w3.org/2000/svg"
   xmlns:sodipodi="http://sodipodi.sourceforge.net/DTD/sodipodi-0.dtd"
   xmlns:inkscape="http://www.inkscape.org/namespaces/inkscape"
   version="1.1"
   id="svg54"
   width="200.16"
   height="200.16"
   viewBox="0 0 200.16 200.16"
   sodipodi:docname="Necropsar.svg"
   inkscape:version="0.92.4 (5da689c313, 2019-01-14)">
  <metadata
     id="metadata60">
    <rdf:RDF>
      <cc:Work
         rdf:about="">
        <dc:format>image/svg+xml</dc:format>
        <dc:type
           rdf:resource="http://purl.org/dc/dcmitype/StillImage" />
        <dc:title></dc:title>
      </cc:Work>
    </rdf:RDF>
  </metadata>
  <defs
     id="defs58" />
  <sodipodi:namedview
     pagecolor="#ffffff"
     bordercolor="#666666"
     borderopacity="1"
     objecttolerance="10"
     gridtolerance="10"
     guidetolerance="10"
     inkscape:pageopacity="0"
     inkscape:pageshadow="2"
     inkscape:window-width="1920"
     inkscape:window-height="1018"
     id="namedview56"
     showgrid="false"
     inkscape:zoom="2.3581135"
     inkscape:cx="-2.5578888"
     inkscape:cy="50.503051"
     inkscape:window-x="-8"
     inkscape:window-y="-8"
     inkscape:window-maximized="1"
     inkscape:current-layer="svg54" />
  <path
     style="fill:#000000;stroke-width:0.56718045"
     d="m 87.543226,233.80951 c 1.861248,-1.34189 23.522144,-0.98796 22.641714,0.36995 -0.17056,0.26305 -5.58845,0.47037 -12.039732,0.46068 -10.440615,-0.0157 -11.605717,-0.10694 -10.601982,-0.83063 z m 20.076444,-1.18844 c -3.95583,-0.38554 -13.662298,-1.97055 -14.400039,-2.35142 -0.569633,-0.29407 -0.481669,-0.61603 0.368784,-1.34966 1.040818,-0.89785 1.467624,-0.90685 6.26696,-0.13202 2.832555,0.4573 7.045395,1.00053 9.361865,1.20716 2.31649,0.20663 4.21178,0.57855 4.21178,0.8265 0,0.60436 -2.42812,2.19774 -3.17917,2.08624 -0.3283,-0.0487 -1.51189,-0.1778 -2.63018,-0.2868 z m 0.89323,-8.29293 c -3.82213,-0.43784 -7.07683,-0.91759 -7.23261,-1.06608 -0.15579,-0.14852 0.61862,-1.11079 1.72096,-2.1384 1.97609,-1.84216 2.05313,-1.86206 5.48983,-1.4179 1.91709,0.24776 5.7762,0.62108 8.57582,0.82959 l 5.09024,0.37915 -1.79866,2.16472 c -2.05268,2.47046 -1.59947,2.42268 -11.84558,1.24892 z m -79.319409,-9.1174 c -5.803333,-0.63368 -16.26617,-2.77547 -16.26617,-3.32977 0,-0.6188 1.338956,-1.21705 6.680747,-2.98503 24.331301,-8.05291 44.20816,-19.77436 60.829042,-35.87105 l 6.802129,-6.58761 2.657044,0.96726 c 1.46137,0.532 2.796881,1.18294 2.967815,1.44658 0.406566,0.62705 -6.379879,9.9918 -11.572385,15.96896 -8.519288,9.80666 -19.589845,18.74034 -32.055976,25.8684 -9.975726,5.70405 -9.72906,5.6484 -20.042246,4.52226 z m 83.509349,-0.34135 c -1.51768,-0.11401 -2.75942,-0.33706 -2.75942,-0.49556 0,-0.1585 1.10758,-1.63998 2.46133,-3.29219 l 2.46131,-3.00398 4.65512,0.0601 c 2.56031,0.0331 6.15315,0.21997 7.98404,0.41532 l 3.32892,0.35522 -2.16704,3.17669 -2.16703,3.17668 -5.51891,-0.0924 c -3.03537,-0.0508 -6.76063,-0.18576 -8.27832,-0.29984 z m -99.238665,-9.221 c -0.183996,-0.18218 -3.4853153,-0.94291 -7.336247,-1.69051 -6.45666686,-1.25347 -17.217245,-3.94557 -18.388047,-4.60034 -0.914148,-0.51124 1.051213,-1.23028 3.4023904,-1.2448 2.9963257,-0.0184 15.8576265,-1.91057 20.9983066,-3.08914 24.211442,-5.55078 44.081565,-14.78266 62.782298,-29.1694 l 4.192559,-3.2254 2.342957,1.13937 c 1.288634,0.62663 2.342959,1.3467 2.342959,1.60014 0,0.97707 -15.682721,14.9704 -21.227281,18.94061 -10.997118,7.87453 -23.587607,14.49538 -36.285253,19.08097 -5.068825,1.83055 -12.020422,3.05477 -12.824642,2.2585 z m 106.213945,-2.87366 c -0.18416,-0.17554 1.12137,-2.41823 2.9012,-4.98376 l 3.23604,-4.66461 h 6.88369 6.88368 l -2.62586,4.98377 -2.62585,4.98376 h -7.15906 c -3.93745,0 -7.30969,-0.14363 -7.49384,-0.31916 z m 9.43049,-14.99417 c -0.003,-0.25773 1.36933,-3.27948 3.04991,-6.71501 3.37843,-6.90645 2.82259,-6.51084 9.88152,-7.03339 4.07346,-0.30157 4.50105,-0.23881 4.48964,0.65886 -0.0151,1.18582 -3.89068,11.86996 -4.49983,12.40497 -0.64899,0.56998 -12.9148,1.21982 -12.92124,0.68457 z m 8.61154,-18.7532 c -0.18367,-0.17505 0.12907,-1.73938 0.69494,-3.47627 0.5659,-1.73687 1.35399,-5.15148 1.75139,-7.58798 0.39736,-2.43651 0.89253,-4.61311 1.10036,-4.83688 0.37638,-0.40526 10.02744,-2.16998 10.32359,-1.8877 0.22899,0.21828 -1.43719,10.1145 -2.29406,13.62546 -0.67148,2.75137 -0.90634,3.05742 -2.59931,3.38748 -3.29513,0.64237 -8.63296,1.10374 -8.97691,0.77589 z m -162.763155,-12.55119 -4.437906,-6.19383 v 4.87725 c 0,4.31827 -0.102025,4.79655 -0.890174,4.17304 -0.717854,-0.56787 -0.858427,-1.8406 -0.726168,-6.57439 0.150607,-5.39042 0.258964,-5.88236 1.325874,-6.01937 0.865702,-0.11124 1.754217,0.73305 3.485609,3.31182 1.278055,1.90355 3.713116,5.31006 5.411248,7.57001 2.338747,3.11251 2.902291,4.22098 2.323739,4.57068 -0.420076,0.25391 -1.054143,0.46548 -1.409045,0.47014 -0.354903,0.005 -2.642334,-2.77873 -5.083177,-6.18535 z m 117.239816,4.88455 c -1.582122,-0.7201 -4.00658,-1.78549 -5.387705,-2.36754 l -2.511126,-1.05826 4.583906,-4.69279 c 2.521148,-2.58105 6.459356,-6.90164 8.751606,-9.60135 5.264518,-6.20034 11.123968,-12.18841 11.539248,-11.79257 0.17501,0.1668 -0.35776,2.54942 -1.18392,5.29471 -3.15936,10.49879 -10.176507,25.52709 -11.919308,25.52709 -0.547892,0 -2.290589,-0.5892 -3.872701,-1.30929 z m -106.103068,-4.08979 c -4.558753,-5.87436 -8.022505,-10.85133 -8.022505,-11.52734 0,-0.58666 3.907439,-1.70333 4.355328,-1.24467 0.593414,0.60769 10.7489764,14.30889 10.7489764,14.50181 0,0.26432 -3.3833394,1.45426 -4.1348994,1.45426 -0.261759,0 -1.587863,-1.43283 -2.9469,-3.18406 z m 8.9717611,-5.26065 c -5.2810361,-6.76107 -6.5374391,-8.51404 -6.5374391,-9.12127 0,-0.41607 5.3894861,-2.36908 6.5376921,-2.36908 0.439091,0 10.8903474,13.27589 10.8903474,13.83367 0,0.44506 -5.30100326,2.77887 -6.31196336,2.77887 -0.317747,0 -2.37813004,-2.30497 -4.57863704,-5.12219 z m 13.0469812,-4.70689 c -4.640058,-5.55512 -7.0459505,-8.95228 -6.624555,-9.35398 0.5008262,-0.47737 6.7778023,-3.00563 8.244249,-3.32062 0.8284117,-0.17796 1.5315497,0.27401 2.4499357,1.57484 0.708426,1.00342 2.860739,3.69332 4.782906,5.97754 1.922157,2.28425 3.49926,4.28759 3.504647,4.45193 0.01319,0.40243 -7.80481,4.40811 -8.603424,4.40811 -0.347411,0 -2.0366005,-1.68203 -3.7537587,-3.73782 z m 134.1364247,-11.31733 0.1268,-11.17887 4.51158,-1.01475 c 2.99817,-0.67436 4.70583,-0.8296 5.09066,-0.46277 0.65147,0.621 0.88978,21.3129 0.25245,21.9204 -0.46324,0.44159 -7.16718,1.86695 -8.91486,1.89543 -1.16938,0.0191 -1.1909,-0.20623 -1.06665,-11.15944 z m -119.879163,4.11856 c -3.27181,-3.62713 -6.537753,-7.85856 -6.537753,-8.47049 0,-0.22734 2.026009,-1.60024 4.502242,-3.05089 2.476236,-1.45063 4.989745,-3.03386 5.58558,-3.51826 1.012216,-0.82293 1.183787,-0.75498 2.614205,1.03531 0.84198,1.05382 3.031536,3.63567 4.865667,5.73744 1.834143,2.10175 3.198616,4.03143 3.032163,4.28815 -0.491202,0.75761 -9.98048,7.16281 -10.611667,7.16281 -0.318049,0 -1.870742,-1.43283 -3.450437,-3.18407 z m 65.966516,0.12337 c -0.149542,-0.14255 0.44732,-3.60379 1.326364,-7.69168 1.680303,-7.81424 2.852747,-18.42809 2.852747,-25.82543 v -4.39987 h 3.011802 c 1.65648,0 4.564804,-0.41537 6.462924,-0.92303 4.21392,-1.12704 7.69912,-4.294216 10.35735,-9.412273 4.36193,-8.398191 0.72463,-18.594707 -8.10788,-22.729168 -2.77704,-1.299923 -4.03791,-1.545018 -7.948119,-1.545018 -5.22958,0 -7.089374,0.787131 -11.909163,5.040377 l -2.614209,2.30694 -5.926285,-3.673653 c -3.259466,-2.020508 -5.939028,-3.815688 -5.95458,-3.98929 -0.06742,-0.752071 4.50913,-5.255963 8.169671,-8.039985 6.392284,-4.861638 12.279951,-6.722305 19.302633,-6.100156 9.494112,0.841098 15.962552,3.558888 21.884792,9.195136 11.77104,11.202602 13.05045,28.17251 3.09836,41.0956 -2.96903,3.85537 -7.38191,7.08028 -9.69197,7.08289 -2.56664,0.003 -5.52803,1.88623 -6.51832,4.14541 -0.47308,1.07927 -0.83645,3.69407 -0.83645,6.01922 v 4.11101 l -6.744864,6.71075 c -6.575392,6.54214 -9.662922,9.14829 -10.214803,8.62224 z M 38.391345,129.30641 c -3.990162,-4.52782 -6.293181,-7.45104 -6.293181,-7.98798 0,-0.27026 2.02601,-2.01789 4.502244,-3.88362 2.476234,-1.86574 5.136006,-4.03835 5.910611,-4.82801 0.774603,-0.78964 1.696353,-1.43575 2.048315,-1.43575 0.529365,0 3.658534,3.58688 7.798479,8.93918 0.715798,0.9254 0.536578,1.3039 -1.733244,3.66055 -2.850087,2.95915 -8.944916,8.44284 -9.383752,8.44284 -0.158121,0 -1.440391,-1.30823 -2.849472,-2.90721 z M 140.25696,112.36824 c -0.73521,-3.95028 -2.08116,-9.63579 -2.99106,-12.634476 -0.90987,-2.99867 -1.48236,-5.619024 -1.27215,-5.822992 0.44112,-0.428034 6.82508,-2.173498 8.44012,-2.307644 1.30929,-0.10876 3.00327,4.823816 5.28966,15.402712 2.10561,9.74241 2.07777,9.97957 -1.2932,11.01549 -1.51768,0.46639 -3.67681,1.00127 -4.79805,1.1886 l -2.03859,0.34063 z m -87.071121,0.0488 c -1.901219,-2.36039 -3.656634,-4.61555 -3.90094,-5.01151 -0.285238,-0.46234 0.458151,-1.65117 2.077616,-3.32252 1.38697,-1.43142 3.33016,-3.57817 4.318184,-4.770546 l 1.79642,-2.16796 6.217441,1.01584 c 3.4196,0.55871 6.319988,1.174 6.445324,1.36729 0.458273,0.706806 -12.028881,17.180976 -13.022897,17.180976 -0.260912,0 -2.02993,-1.93122 -3.931148,-4.29157 z M 134.52101,87.557825 c -0.17896,-0.444547 -0.19015,-4.221903 -0.0249,-8.39412 0.40822,-10.304936 2.70235,-17.37137 8.3616,-25.755888 1.40048,-2.074873 2.38539,-4.020671 2.18872,-4.323998 -0.19666,-0.303327 -1.11108,-0.393753 -2.03203,-0.200943 -2.07372,0.434154 -4.02429,-0.109291 -4.02429,-1.121193 0,-0.418461 1.59593,-1.57166 3.54652,-2.562668 4.19355,-2.130551 5.31717,-3.502621 4.81772,-5.883 -0.37861,-1.804475 -1.58433,-2.528386 -5.84598,-3.509962 -13.75247,-3.167557 -26.94019,-0.474502 -35.34701,7.218181 l -3.49153,3.194948 -7.255747,0.293978 c -3.990654,0.161688 -7.318424,0.242447 -7.39501,0.179466 -0.07662,-0.06298 1.361221,-1.776155 3.195134,-3.807053 3.539435,-3.919599 10.245493,-9.008628 14.798103,-11.229877 8.86626,-4.325899 21.69309,-3.90721 37.12124,1.211699 l 5.66714,1.880308 5.98724,-0.584735 c 3.29297,-0.321604 8.73215,-0.948599 12.08703,-1.393321 3.35492,-0.444724 10.21721,-0.965102 15.24954,-1.156397 l 9.14972,-0.347807 v 1.638118 c 0,0.900965 -0.32677,2.063567 -0.72616,2.583557 -0.89426,1.164297 -9.44064,4.003855 -15.22669,5.059104 -12.99184,2.369441 -23.0353,9.378803 -28.39233,19.815093 -1.44695,2.818902 -2.92892,6.559103 -3.29328,8.31156 -0.77649,3.734746 -0.91547,10.003695 -0.31316,14.124649 l 0.4258,2.913384 -2.03317,0.809763 c -3.77184,1.502234 -6.82958,1.943048 -7.19425,1.037154 z"
     id="path66"
     inkscape:connector-curvature="0" />
</svg>
