<?xml version="1.0" encoding="UTF-8" standalone="no"?>
<!-- Created with Inkscape (http://www.inkscape.org/) -->

<svg
   xmlns:dc="http://purl.org/dc/elements/1.1/"
   xmlns:cc="http://creativecommons.org/ns#"
   xmlns:rdf="http://www.w3.org/1999/02/22-rdf-syntax-ns#"
   xmlns:svg="http://www.w3.org/2000/svg"
   xmlns="http://www.w3.org/2000/svg"
   xmlns:sodipodi="http://sodipodi.sourceforge.net/DTD/sodipodi-0.dtd"
   xmlns:inkscape="http://www.inkscape.org/namespaces/inkscape"
   version="1.1"
   id="svg10"
   width="200.16"
   height="200.16"
   viewBox="0 0 200.16 200.16"
   sodipodi:docname="ROLL.svg"
   inkscape:version="0.92.4 (5da689c313, 2019-01-14)">
  <metadata
     id="metadata16">
    <rdf:RDF>
      <cc:Work
         rdf:about="">
        <dc:format>image/svg+xml</dc:format>
        <dc:type
           rdf:resource="http://purl.org/dc/dcmitype/StillImage" />
        <dc:title></dc:title>
      </cc:Work>
    </rdf:RDF>
  </metadata>
  <defs
     id="defs14" />
  <sodipodi:namedview
     pagecolor="#ffffff"
     bordercolor="#666666"
     borderopacity="1"
     objecttolerance="10"
     gridtolerance="10"
     guidetolerance="10"
     inkscape:pageopacity="0"
     inkscape:pageshadow="2"
     inkscape:window-width="1920"
     inkscape:window-height="1018"
     id="namedview12"
     showgrid="false"
     inkscape:zoom="2.960409"
     inkscape:cx="97.592502"
     inkscape:cy="93.507673"
     inkscape:window-x="-8"
     inkscape:window-y="-8"
     inkscape:window-maximized="1"
     inkscape:current-layer="svg10" />
  <path
     style="fill:#000000;stroke-width:0.50695091"
     d="m 80.764931,187.48623 c -3.953842,-2.08727 -5.827127,-7.13175 -4.215499,-11.35174 2.948979,-7.72179 13.469417,-8.36226 17.016046,-1.0359 2.270171,4.68955 0.534599,10.03248 -4.059192,12.49616 -2.320467,1.24448 -6.271318,1.19543 -8.741355,-0.10852 z m 26.742909,-9.7438 c -2.07977,-1.26747 -48.881069,-48.83028 -49.397252,-50.201 -1.415189,-3.75803 -0.439664,-5.59073 6.662126,-12.51604 2.841343,-2.77073 5.027822,-5.17593 4.858851,-5.34491 -0.54956,-0.54956 -12.278965,3.67311 -17.549242,6.31786 -3.527435,1.77014 -5.751383,2.57772 -7.098732,2.57772 -2.821985,0 -11.676082,-2.3324 -17.574,-4.62945 -10.611336,-4.13276 -12.164298,-5.68074 -12.137749,-12.09888 0.01822,-4.404404 1.177179,-8.498308 3.470092,-12.257754 1.365311,-2.238558 2.249076,-2.948289 6.76875,-5.435857 6.456948,-3.553817 13.102827,-8.226586 17.168727,-12.071454 2.953711,-2.793143 3.106404,-3.056271 3.173759,-5.469073 0.151137,-5.414027 4.078678,-13.399118 9.016597,-18.331649 4.17679,-4.172226 9.479982,-6.761164 18.304112,-8.93577 l 6.729073,-1.658305 1.76754,-2.934196 c 4.191805,-6.958594 14.314479,-19.007936 17.754915,-21.134243 3.170903,-1.95972 7.718363,-1.087815 8.825753,1.692197 0.24403,0.612604 0.70332,3.50917 1.02066,6.436811 0.58795,5.424148 2.28508,13.71202 3.14535,15.360273 0.26185,0.501694 3.72539,4.151741 7.69676,8.111214 7.76791,7.744654 13.3205,14.434398 19.15632,23.079533 l 3.677,5.447072 2.57149,0.03715 c 4.38469,0.06338 7.78163,2.684411 8.91,6.874816 0.71108,2.640789 0.25519,5.188009 -1.37572,7.68633 -1.26935,1.944481 -1.27266,1.978284 -0.41453,4.225263 l 0.86504,2.265108 1.58927,-1.502941 c 2.30226,-2.177209 3.74958,-2.783355 6.6459,-2.783355 8.54948,0 12.55878,10.35937 6.27236,16.20676 -1.66032,1.54438 -3.81691,2.2747 -6.67117,2.25917 -2.02152,-0.011 -2.41195,0.13379 -2.27864,0.84508 0.0885,0.47211 1.04642,4.42539 2.12876,8.78506 1.34052,5.39967 1.85376,8.38954 1.60991,9.37859 -0.2471,1.00216 -7.68856,8.8048 -24.02291,25.18884 -13.0157,13.05531 -24.28093,24.06248 -25.03385,24.46038 -1.66092,0.87777 -4.85082,0.91339 -6.23532,0.0696 z m 21.92306,-34.95686 c 14.67723,-14.67311 18.37953,-18.63801 18.37953,-19.68317 0,-1.85119 -2.66225,-11.10431 -5.10431,-17.74083 -5.17553,-14.065101 -12.87556,-27.547111 -22.70929,-39.76188 -1.57131,-1.951761 -6.28711,-7.084638 -10.47957,-11.406395 l -7.62265,-7.857739 -1.41343,-4.816034 c -2.177053,-7.417926 -1.801943,-7.150433 -4.503905,-3.211827 -1.307492,1.905917 -3.240515,5.053301 -4.295607,6.994183 -2.249797,4.138586 -4.11339,5.577403 -7.846465,6.058003 -7.50085,0.96566 -16.340128,3.990859 -19.050175,6.51982 -1.514465,1.413267 -4.826488,7.359913 -4.529784,8.133104 0.127513,0.332295 2.56836,1.002881 5.424106,1.490192 6.089596,1.039143 7.803201,1.743997 8.025205,3.30099 0.411882,2.888738 -4.245658,5.021928 -13.08968,5.995181 -3.162563,0.348028 -3.4074,0.477822 -6.083411,3.22503 -5.292401,5.433201 -13.711872,11.705065 -21.168807,15.76914 -2.965289,1.616096 -4.105204,2.914125 -3.466589,3.947425 0.306382,0.495737 6.179596,2.658397 10.586722,3.898277 l 2.934181,0.82551 5.683984,-2.51914 c 12.539274,-5.557398 26.611338,-8.716895 38.824156,-8.716895 5.431219,0 8.683276,2.617081 8.683276,6.987835 0,2.61399 -1.025549,4.06041 -6.92811,9.77126 -3.020703,2.92259 -7.646864,7.54477 -10.280356,10.2715 l -4.788172,4.9577 17.966218,17.97155 c 9.881423,9.88436 18.080323,17.97157 18.219803,17.97157 0.13947,0 8.52438,-8.26846 18.63313,-18.37436 z m -22.7305,9.5917 c -3.96424,-2.09081 -6.09616,-6.68106 -5.0439,-10.86001 0.77156,-3.06411 1.87403,-4.60221 4.48612,-6.25875 l 2.21237,-1.40304 -1.48896,-0.76997 c -0.81893,-0.42348 -2.18478,-1.56247 -3.03522,-2.53107 l -1.54626,-1.76108 -2.287461,2.19177 c -5.197369,4.97995 -13.094077,3.49498 -16.115266,-3.03047 -3.045584,-6.57815 1.93973,-13.92459 9.458588,-13.93832 1.829744,-0.003 6.627488,2.27165 7.315379,3.4688 1.23885,2.156 1.28726,2.1515 3.89417,-0.36122 l 2.55864,-2.4662 -1.76028,-1.40456 c -3.91101,-3.12068 -4.73234,-8.9451 -1.84035,-13.05079 5.1611,-7.327063 16.02458,-5.108477 17.99826,3.67567 0.81278,3.61741 -1.0075,8.13131 -4.05636,10.0589 l -1.32387,0.837 2.3833,2.36152 2.38332,2.36153 1.32145,-1.73252 c 3.59812,-4.71738 11.19955,-5.02773 15.30641,-0.62493 1.39516,1.49569 2.68569,4.52499 2.68569,6.3042 0,4.55519 -3.63727,9.3382 -7.77191,10.22003 -4.1051,0.87555 -7.22301,-0.1216 -9.89464,-3.16442 l -1.58318,-1.80314 -1.787,1.97801 c -0.98285,1.08789 -2.48023,2.26514 -3.32749,2.6161 l -1.54049,0.63808 2.04595,1.22005 c 4.61676,2.75311 6.11139,9.09695 3.23673,13.73801 -2.74394,4.43 -8.26614,5.92623 -12.88374,3.49082 z m 7.61238,-5.20355 c 4.0948,-3.44555 -0.23306,-10.04011 -4.97859,-7.5861 -4.52067,2.33772 -2.85392,8.71558 2.31709,8.8664 0.60597,0.0177 1.80364,-0.55846 2.6615,-1.2803 z m 0.51109,-19.34581 c 2.26359,-2.10088 2.29347,-5.04333 0.0737,-7.26304 -3.7291,-3.72911 -10.00255,0.43052 -8.14512,5.40064 1.28083,3.42725 5.36896,4.37055 8.07137,1.8624 z m 18.32398,-0.0878 c 2.51246,-2.51245 1.86314,-6.09815 -1.34718,-7.43951 -1.50249,-0.62778 -1.96455,-0.62778 -3.46704,0 -2.00201,0.8365 -2.82904,2.11238 -2.82904,4.36448 0,2.17504 2.38481,4.55688 4.56256,4.55688 1.09121,0 2.06934,-0.47049 3.0807,-1.48185 z m -38.050164,0.20923 c 1.787481,-0.92434 2.524601,-2.18262 2.524601,-4.30951 0,-2.17504 -2.3848,-4.55688 -4.562554,-4.55688 -3.51136,0 -5.800345,4.59757 -3.747888,7.52786 1.432181,2.04473 3.496623,2.52232 5.785841,1.33853 z m 19.799934,-18.96642 c 2.92509,-2.92506 1.17422,-7.64323 -2.83635,-7.64323 -2.48851,0 -3.74334,0.7712 -4.60316,2.82904 -0.62625,1.49884 -0.62687,1.96671 -0.004,3.45607 1.35141,3.23439 4.91727,3.88497 7.44409,1.35814 z m 34.21278,63.7542 c -5.5822,-1.25231 -8.76976,-7.27782 -6.59875,-12.47378 2.59314,-6.20627 9.75748,-7.91775 14.75954,-3.52588 7.28563,6.39686 1.30453,18.12311 -8.16079,15.99966 z m -84.61472,-2.15095 c -3.767507,-1.395 -6.025598,-4.73198 -6.025598,-8.90455 0,-2.86532 0.986289,-4.91415 3.375436,-7.01185 4.309702,-3.78397 11.42166,-2.28255 14.103836,2.97749 1.169572,2.29367 1.145238,6.33992 -0.05167,8.59003 -2.054317,3.862 -7.306612,5.8653 -11.40201,4.34888 z M 49.56913,154.52636 c -2.533001,-0.7641 -5.417617,-3.94095 -6.123363,-6.74372 -0.773151,-3.07046 -0.08936,-5.75596 2.100731,-8.25033 3.965538,-4.51651 10.67371,-4.22067 14.376556,0.63401 2.007597,2.63209 2.280301,6.90596 0.628213,9.84545 -2.038779,3.62752 -7.068492,5.69515 -10.982137,4.51459 z M 173.9184,91.924338 c -3.61,-1.877534 -5.32298,-4.640335 -5.32298,-8.58528 0,-3.095062 1.56624,-6.013137 4.14257,-7.718074 4.39548,-2.908787 10.70326,-1.272862 13.08375,3.393276 1.12256,2.2004 1.33594,5.720464 0.4832,7.971104 -1.72722,4.558593 -8.17477,7.12947 -12.38654,4.938974 z M 158.27251,75.261323 c -8.475,-3.072001 -8.46022,-14.750208 0.0222,-17.549667 4.33646,-1.431163 8.93784,0.572003 11.06977,4.819126 1.39374,2.776504 1.49848,3.706182 0.72948,6.475086 -1.39562,5.025095 -7.01392,7.998083 -11.82147,6.255455 z"
     id="path20"
     inkscape:connector-curvature="0" />
</svg>
